<?xml version="1.0" encoding="utf-8"?>
<!-- Generator: Adobe Illustrator 16.0.0, SVG Export Plug-In . SVG Version: 6.00 Build 0)  -->
<!DOCTYPE svg PUBLIC "-//W3C//DTD SVG 1.1//EN" "http://www.w3.org/Graphics/SVG/1.1/DTD/svg11.dtd">
<svg version="1.1" id="Layer_1" xmlns="http://www.w3.org/2000/svg" xmlns:xlink="http://www.w3.org/1999/xlink" x="0px" y="0px"
	 width="352.777px" height="112.5px" viewBox="0 0 352.777 112.5" enable-background="new 0 0 352.777 112.5" xml:space="preserve">
<path fill="#DB36A4" d="M46.623,96.568c40.456,0,62.584-33.519,62.584-62.584c0-0.953,0-1.9-0.063-2.844
	c4.305-3.113,8.021-6.969,10.974-11.385c-4.015,1.777-8.272,2.943-12.634,3.459c4.592-2.748,8.028-7.072,9.671-12.166
	c-4.317,2.563-9.042,4.369-13.968,5.34c-8.33-8.857-22.265-9.285-31.121-0.955c-5.712,5.371-8.137,13.377-6.363,21.016
	c-17.686-0.887-34.162-9.24-45.331-22.98c-5.839,10.049-2.855,22.906,6.811,29.361c-3.5-0.104-6.925-1.047-9.983-2.754
	c0,0.092,0,0.186,0,0.279c0.003,10.471,7.384,19.488,17.646,21.563c-3.237,0.883-6.636,1.012-9.932,0.377
	c2.882,8.961,11.139,15.1,20.55,15.275c-7.789,6.121-17.41,9.443-27.315,9.434c-1.751-0.002-3.499-0.109-5.236-0.318
	c10.059,6.457,21.763,9.881,33.715,9.865"/>
<g>
	<path fill="#DB36A4" d="M186.104,49.086h-8.602l-2.492-7.795H162.55l-2.468,7.795h-8.551l12.754-35.036h9.356L186.104,49.086z
		 M173.203,35.232l-3.762-11.777c-0.277-0.879-0.474-1.93-0.588-3.152h-0.194c-0.082,1.026-0.285,2.045-0.61,3.057l-3.813,11.873
		L173.203,35.232L173.203,35.232z"/>
	<path fill="#DB36A4" d="M229.447,49.086h-7.695v-14.27c0-3.632-1.336-5.447-4.008-5.447c-1.271,0-2.306,0.546-3.103,1.638
		c-0.799,1.089-1.197,2.45-1.197,4.079v14h-7.72V34.67c0-3.533-1.313-5.301-3.936-5.301c-1.319,0-2.374,0.521-3.164,1.563
		c-0.79,1.043-1.185,2.461-1.185,4.252v13.902h-7.723v-25.02h7.723v3.91h0.098c0.797-1.336,1.918-2.424,3.359-3.263
		c1.44-0.839,3.018-1.259,4.728-1.259c3.534,0,5.952,1.557,7.257,4.668c1.905-3.111,4.707-4.668,8.403-4.668
		c5.44,0,8.161,3.355,8.161,10.067L229.447,49.086L229.447,49.086z"/>
	<path fill="#DB36A4" d="M258.033,38.775h-16.32c0.261,3.632,2.549,5.447,6.865,5.447c2.753,0,5.172-0.65,7.257-1.955v5.572
		c-2.313,1.238-5.317,1.857-9.016,1.857c-4.04,0-7.175-1.12-9.407-3.361c-2.229-2.238-3.347-5.361-3.347-9.369
		c0-4.153,1.205-7.442,3.616-9.871c2.409-2.427,5.375-3.641,8.893-3.641c3.649,0,6.471,1.084,8.467,3.25
		c1.995,2.167,2.992,5.106,2.992,8.82V38.775z M250.875,34.035c0-3.584-1.449-5.375-4.349-5.375c-1.239,0-2.311,0.513-3.213,1.539
		c-0.904,1.025-1.454,2.306-1.649,3.836H250.875z"/>
	<path fill="#DB36A4" d="M278.947,31.029c-0.928-0.504-2.011-0.757-3.249-0.757c-1.678,0-2.989,0.614-3.934,1.846
		c-0.944,1.228-1.417,2.903-1.417,5.02v11.948h-7.722v-25.02h7.722v4.643h0.098c1.222-3.388,3.422-5.082,6.597-5.082
		c0.814,0,1.45,0.097,1.905,0.293V31.029z"/>
	<path fill="#DB36A4" d="M286.645,20.108c-1.306,0-2.37-0.388-3.201-1.16c-0.83-0.773-1.246-1.724-1.246-2.847
		c0-1.158,0.416-2.102,1.246-2.834c0.831-0.733,1.896-1.1,3.201-1.1c1.318,0,2.391,0.366,3.213,1.1
		c0.822,0.732,1.232,1.676,1.232,2.834c0,1.173-0.41,2.135-1.232,2.884C289.035,19.733,287.964,20.108,286.645,20.108z
		 M290.457,49.086h-7.722v-25.02h7.722V49.086L290.457,49.086z"/>
	<path fill="#DB36A4" d="M315.914,48.182c-1.742,1.01-4.26,1.516-7.549,1.516c-3.844,0-6.955-1.165-9.334-3.496
		c-2.379-2.328-3.566-5.333-3.566-9.015c0-4.251,1.273-7.603,3.823-10.054c2.55-2.451,5.957-3.678,10.227-3.678
		c2.946,0,5.082,0.392,6.399,1.174v6.548c-1.612-1.205-3.412-1.808-5.398-1.808c-2.216,0-3.971,0.647-5.266,1.941
		c-1.295,1.297-1.941,3.082-1.941,5.363c0,2.214,0.617,3.955,1.856,5.216c1.237,1.263,2.938,1.894,5.105,1.894
		c1.922,0,3.803-0.602,5.644-1.807V48.182L315.914,48.182z"/>
	<path fill="#DB36A4" d="M341.789,49.086h-7.305v-3.592h-0.1c-1.678,2.802-4.161,4.203-7.451,4.203
		c-2.429,0-4.337-0.689-5.729-2.065c-1.392-1.376-2.089-3.213-2.089-5.511c0-4.854,2.875-7.655,8.625-8.404l6.792-0.903
		c0-2.735-1.481-4.104-4.446-4.104c-2.979,0-5.814,0.887-8.503,2.662v-5.814c1.075-0.553,2.545-1.042,4.411-1.465
		c1.864-0.425,3.563-0.637,5.094-0.637c7.134,0,10.701,3.56,10.701,10.678V49.086z M334.532,38.921v-1.687l-4.545,0.588
		c-2.509,0.326-3.762,1.457-3.762,3.396c0,0.88,0.304,1.601,0.916,2.163c0.608,0.561,1.438,0.842,2.479,0.842
		c1.449,0,2.631-0.499,3.543-1.502C334.076,41.719,334.532,40.452,334.532,38.921z"/>
	<path fill="#DB36A4" d="M171.787,64.635h-12.363v8.602h11.36v6.399h-11.36v13.609h-7.893V58.208h20.256V64.635z"/>
	<path fill="#DB36A4" d="M199.273,82.936h-16.321c0.261,3.633,2.55,5.447,6.865,5.447c2.753,0,5.173-0.65,7.257-1.955V92
		c-2.313,1.238-5.317,1.855-9.015,1.855c-4.041,0-7.178-1.119-9.407-3.359c-2.232-2.238-3.348-5.362-3.348-9.369
		c0-4.152,1.204-7.443,3.615-9.87c2.41-2.428,5.376-3.641,8.895-3.641c3.647,0,6.471,1.083,8.465,3.249
		c1.996,2.167,2.994,5.105,2.994,8.82V82.936z M192.115,78.195c0-3.584-1.451-5.375-4.35-5.375c-1.238,0-2.31,0.513-3.215,1.539
		c-0.901,1.024-1.453,2.305-1.648,3.836H192.115z"/>
	<path fill="#DB36A4" d="M226.344,82.936h-16.319c0.26,3.633,2.55,5.447,6.865,5.447c2.752,0,5.172-0.65,7.257-1.955V92
		c-2.313,1.238-5.317,1.855-9.017,1.855c-4.04,0-7.176-1.119-9.406-3.359c-2.23-2.238-3.348-5.362-3.348-9.369
		c0-4.152,1.206-7.443,3.616-9.87c2.41-2.428,5.375-3.641,8.895-3.641c3.647,0,6.471,1.083,8.466,3.249
		c1.996,2.167,2.991,5.105,2.991,8.82V82.936z M219.187,78.195c0-3.584-1.45-5.375-4.351-5.375c-1.238,0-2.309,0.513-3.213,1.539
		c-0.902,1.024-1.454,2.305-1.647,3.836H219.187z"/>
	<path fill="#DB36A4" d="M238.658,93.245h-7.721V56.207h7.721V93.245z"/>
	<path fill="#DB36A4" d="M243.521,92.586v-6.255c1.271,0.767,2.536,1.335,3.8,1.709c1.262,0.376,2.455,0.563,3.58,0.563
		c1.367,0,2.447-0.188,3.235-0.563c0.791-0.374,1.186-0.942,1.186-1.709c0-0.488-0.179-0.896-0.537-1.222
		c-0.358-0.325-0.818-0.611-1.381-0.856c-0.562-0.243-1.177-0.464-1.843-0.659c-0.669-0.193-1.313-0.414-1.932-0.658
		c-0.995-0.373-1.869-0.778-2.628-1.209c-0.757-0.432-1.393-0.933-1.904-1.502c-0.514-0.569-0.903-1.231-1.174-1.98
		c-0.268-0.749-0.402-1.637-0.402-2.664c0-1.398,0.306-2.604,0.917-3.615c0.609-1.009,1.425-1.837,2.442-2.479
		c1.019-0.645,2.184-1.114,3.493-1.416c1.313-0.303,2.676-0.452,4.093-0.452c1.107,0,2.232,0.085,3.371,0.256
		c1.142,0.171,2.265,0.42,3.372,0.745v5.962c-0.978-0.57-2.023-0.998-3.14-1.284c-1.115-0.283-2.211-0.426-3.286-0.426
		c-0.506,0-0.981,0.045-1.429,0.133c-0.447,0.09-0.845,0.221-1.187,0.393c-0.342,0.17-0.608,0.391-0.807,0.66
		c-0.195,0.27-0.293,0.573-0.293,0.914c0,0.457,0.146,0.848,0.438,1.176c0.293,0.323,0.677,0.604,1.148,0.842
		c0.474,0.236,0.997,0.447,1.576,0.636s1.152,0.379,1.723,0.574c1.026,0.356,1.955,0.75,2.785,1.173s1.544,0.92,2.138,1.488
		c0.596,0.572,1.052,1.24,1.368,2.006c0.317,0.766,0.478,1.677,0.478,2.734c0,1.482-0.321,2.75-0.966,3.799
		c-0.644,1.052-1.499,1.906-2.563,2.565c-1.067,0.66-2.298,1.142-3.69,1.442c-1.394,0.302-2.839,0.451-4.337,0.451
		C248.414,93.855,245.866,93.434,243.521,92.586z"/>
</g>
</svg>
