<?xml version="1.0" encoding="utf-8"?>
<!-- Generator: Adobe Illustrator 16.0.0, SVG Export Plug-In . SVG Version: 6.00 Build 0)  -->
<!DOCTYPE svg PUBLIC "-//W3C//DTD SVG 1.1//EN" "http://www.w3.org/Graphics/SVG/1.1/DTD/svg11.dtd">
<svg version="1.1" id="Layer_1" xmlns="http://www.w3.org/2000/svg" xmlns:xlink="http://www.w3.org/1999/xlink" x="0px" y="0px"
	 width="1920px" height="1080px" viewBox="0 0 1920 1080" enable-background="new 0 0 1920 1080" xml:space="preserve">
<g>
	<defs>
		<rect id="SVGID_1_" y="0.298" width="1920" height="1080"/>
	</defs>
	<clipPath id="SVGID_2_">
		<use xlink:href="#SVGID_1_"  overflow="visible"/>
	</clipPath>
	<rect y="-119.702" clip-path="url(#SVGID_2_)" fill="#3FA9F5" width="1920" height="171"/>
	<path clip-path="url(#SVGID_2_)" fill-rule="evenodd" clip-rule="evenodd" fill="#3FA9F5" d="M2142.964-276.008
		c-4.517,5.219-9.122,11.786-14.972,16.946c-5.986,5.283-13.521,8.21-22.322,7.464c5.635,1.863,4.984,6.122,4.277,9.949
		c-0.25,1.336-2.831,3.534-3.561,3.258c-2.73-1.034-5.135-2.928-7.95-4.679c-4.401,5.889-0.059,18.685-12.124,22.214
		c-3.041-7.167-3.041-7.167,5.3-15.484c-3.299-2.196-6.403-4.262-10.85-7.221c0.796,7.423,2,12.847,1.716,18.189
		c-0.169,3.185-2.293,6.514-4.25,9.276c-1.582,2.232-4.217,3.727-6.4,5.526c-7.434,6.123-14.616,12.735-24.922,12.634
		c-6.568,17.303-12.129,67.173-9.203,82.245c6.135-0.065,10.26,3.072,13.742,8.119c3.094,4.487,7.21,8.274,10.924,12.325
		c3.258,3.556,7.194,3.101,10.877,1.148c1.991-1.056,3.425-3.166,5.109-4.801c-2.226-2.146-4.448-4.298-6.675-6.441
		c-2.146-2.064-4.296-4.124-7.304-7.012c14.43-1.021,19.106,7.599,19.555,18.729c0.129,3.232-1.227,4.434-4.205,5.538
		c-4.147,1.536-8.174,3.734-11.783,6.308c-5.249,3.745-10.079,8.075-14.717,11.854c1.346-4.357,2.673-8.661,4.215-13.67
		c-7.293,1.253-8.023,2.502-9.186,7.622c-0.719,3.174-2.203,7.271-4.667,8.746c-7.732,4.625-15.978,8.453-24.228,12.138
		c-15.8,7.056-32.29,12.778-47.46,20.975c-13.94,7.535-26.272,17.771-27.367,35.843c-0.034,0.561-0.858,1.096-1.353,1.608
		c-2.276,2.354-4.567,4.694-7.412,7.616c1.8,0.277,2.871,0.728,3.82,0.546c7.714-1.478,7.762-1.525,9.105,5.931
		c0.568,3.149,1.067,6.34,1.235,9.533c1.099,20.796-3.622,40.176-14.944,57.703c-3.47,5.373-7.922,10.107-11.926,15.134
		c-0.602-0.33-1.203-0.663-1.806-0.997c0.808-3.721,1.614-7.44,2.215-10.209c-8.046-2.761-15.842-5.436-23.506-8.064
		c4.24,9.666,8.735,19.723,19.783,24.947c1.737,0.823,3.264,3.025,3.973,4.931c3.793,10.21,3.691,21.089,1.44,31.216
		c-3.5,15.744-9.107,31.016-13.724,46.515c-1.519,5.098-2.739,10.284-4.097,15.429c-0.507,0.11-1.016,0.217-1.524,0.323
		c-1.582-2.432-4.39-4.799-4.524-7.31c-0.433-8.192-0.325-16.479,0.403-24.652c0.648-7.278,2.797-14.447-1.546-21.35
		c-1.97-3.136-4.257-5.227-8.32-4.8c0.799,5.638,6.734,9.923,1.938,17.247c-2.57-4.325-4.573-7.818-6.699-11.236
		c-2.18-3.505-3.809-9.013-6.852-9.99c-7.825-2.516-6.129-8.321-5.161-12.791c1.153-5.322-0.114-7.062-3.693-6.909
		c0.607-5.2,1.895-10.306,1.605-15.321c-0.321-5.589-2.076-11.095-3.114-16.193c-11.801,8.827-7.843,41.817,7.729,56.232
		c-1.231,2.877-2.464,5.755-3.873,9.044c12.722,9.517,15.137,23.568,16.578,38.593c-2.022-0.85-3.434-1.444-6.236-2.622
		c4.558,7.611,8.358,13.956,12.738,21.27c1.377,0,4.496-0.409,7.432,0.147c1.854,0.354,4.197,1.753,5.018,3.354
		c8.422,16.418,16.578,32.975,24.974,49.82c-1.983,2.611-4.505,5.934-7.013,9.237c2.748,1.421,8.655-1.808,7.652,4.695
		c-0.999,6.471-3.572,12.83-10.1,15.408c-6.504,2.567-13.53,3.797-20.63,5.692c2.784,6.396,0.188,12.514-6.027,17.601
		c0.264,0.427,0.528,0.854,0.796,1.28c6.28-1.143,12.565-2.284,18.651-3.389c-0.378,7.887-5.542,14.433-14.298,19.399
		c-7.553,4.286-15.313,8.223-23.082,12.108c-14.95,7.479-24.113,18.953-25.137,36.049c-0.18,2.987-1.043,4.184-4.246,4.682
		c-26.135,4.069-39.538,17.749-40.589,44.567c-0.083,2.156-1.731,4.558-3.271,6.292c-4.915,5.529-10.252,10.686-15.185,16.199
		c-7.763,8.678-13.729,19.246-25.172,23.994c-4.055,1.682-5.927,4.291-6.977,8.688c-0.96,4.033-3.732,7.707-6.033,11.334
		c-5.002,7.887-11.669,15.069-15.02,23.579c-5.885,14.945-7.671,30.744-6.275,47.106c1.612,18.903,6.548,36.668,14.35,53.735
		c10.573,23.132,25.088,43.529,43.654,60.967c3.609,3.393,4.268,6.603,0.272,10.034c-2.394,2.057-1.799,3.728-0.294,6.323
		c11.902,20.53,25.479,40.142,33.846,62.613c8.406,22.589,11.74,45.569,7.172,69.479c-0.3,1.557,1.421,3.509,2.223,5.266
		c0.568,1.24,1.853,2.602,1.639,3.673c-0.73,3.663-1.846,7.27-3.063,10.809c-5.827,16.943-18.506,28.17-32.337,38.386
		c-0.553,0.408-1.67,0.051-3.01,0.051c5.031-14.312,22.93-16.626,27.694-31.481c-11.939,0.158-21.118,7.433-31.644,9.954
		c-3.397-7.572-6.267-15.149-10.1-22.206c-5.109-9.405-12.201-16.526-24.198-15.304c-3.631,0.371-5.01-1.625-6.165-4.513
		c-3.104-7.763-6.354-15.47-9.545-23.199c-11.275,4.905-10.917,4.685-16.709-4.778c-7.467-12.194-15.293-24.198-23.574-35.85
		c-3.068-4.314-6.347-7.794-3.104-12.774c-1.394-0.846-2.688-1.261-3.427-2.139c-4.263-5.071-6.586-10.98-6.636-17.612
		c-0.099-12.97,0.224-25.949-0.168-38.91c-0.141-4.596-1.276-9.385-3.047-13.633c-1.266-3.042-4.083-7.288-6.66-7.634
		c-14.964-2.012-24.361-12.048-33.031-22.496c-7.62-9.183-16.56-15.288-28.037-17.67c-3.291-0.683-7.091-0.909-10.167,0.121
		c-1.908,0.64-2.766,4.137-4.335,6.165c-1.462,1.886-3.143,3.637-4.899,5.263c-9.819,9.089-22.425,11.036-34.861,13.152
		c-1.535,0.262-4.195-1.413-5.116-2.929c-6.782-11.179-17.043-17.315-29.17-20.927c-19.478-5.794-38.925-3.273-58.239,0.688
		c-10.78,2.21-21.366,5.374-30.475,7.708c0.433-3.631,1.975-7.988,1.1-11.79c-0.772-3.349-4.097-8.432-6.551-8.583
		c-4.831-0.301-4.804,5.146-5.364,9.02c-0.754,5.203-3.015,8.192-9.021,7.66c-5.678-0.502-11.496-0.642-17.145,0.014
		c-9.498,1.103-19.174,2.059-28.283,4.744c-10.187,3-16.724,10.619-19.802,21.124c5.249,1.715,7.486-1.142,9.603-4.585
		c2.027-3.304,4.374-6.368,9.063-4.634c3.765,13.485,2.534,16.437-12.452,27.997c3.042,2.133,5.518,4.611,8.503,5.794
		c5.042,1.998,10.635,2.674,15.557,4.882c3.226,1.45,7.158,4.16,8.1,7.145c1.195,3.796-4.355,7.208-10.227,7.222
		c-0.952,0.002-1.939,0.078-2.85-0.134c-10.964-2.557-20.585-7.324-27.277-17.009c-5.616,1.988-7.091,6.256-7.339,11.554
		c-0.359,7.671-6.896,12.983-14.309,11.293c0.857-1.501,1.849-2.794,2.365-4.253c0.639-1.807,0.884-3.753,1.299-5.64
		c-2.104-0.101-4.496-0.884-6.253-0.149c-3.061,1.282-6.508,2.914-8.409,5.442c-4.775,6.354-10.359,6.757-16.971,3.956
		c-2.601-1.101-5.256-2.091-7.787-3.334c-9.297-4.565-9.28-4.598-7.744-13.483c-6.539-4.546-12.946-8.773-19.104-13.335
		c-8.088-5.987-13.863-6.288-21.049-0.49c3.162,5.09,8.21,2.682,12.359,2.844c4.528,0.174,6.522,1.827,6.239,7.607
		c-13.636-1.494-26.983-2.588-40.213-4.496c-20.758-2.993-41.483-5.538-62.416-2.086c-12.745,2.104-24.553,6.736-33.615,16.13
		c-18.751,19.446-41.477,33.245-64.479,46.723c-18.053,10.578-36.043,21.27-54.282,31.518c-5.258,2.953-6.551,7.057-6.721,12.4
		c-0.258,8.148-1.143,16.288-1.117,24.426c0.045,15.284,0.242,30.58,0.987,45.843c0.372,7.581,2.1,15.098,3.315,23.346
		c-5.495-1.247-10.553-2.358-15.593-3.543c-18.933-4.459-37.566-9.706-54.697-19.346c-9.05-5.091-16.639-11.688-23.123-19.756
		c-9.859-12.266-10.81-26.604-10.228-41.414c0.063-1.599-0.488-3.615-1.502-4.794c-4.524-5.256-9.422-10.188-13.992-15.405
		c-6.792-7.754-13.46-15.622-20.097-23.511c-1.602-1.905-3.502-3.891-4.203-6.166c-2.593-8.433-4.084-17.252-7.193-25.471
		c-6.886-18.204-17.457-33.813-34.333-44.467c-11.818-7.458-24.671-11.819-38.422-14.17c-9.988-1.705-19.317,1.279-24.643,9.76
		c-4.207,6.699-7.564,13.926-11.65,20.707c-2.319,3.848-5.049,7.57-8.21,10.73c-1.229,1.229-4.641,1.712-6.237,0.907
		c-13.487-6.802-26.957-13.674-40.087-21.136c-11.897-6.758-20.87-16.134-22.988-30.49c-1.453-9.857-2.577-19.789-4.606-29.531
		c-1.919-9.215-5.837-17.202-15.004-22.08c-6.246-3.326-12.58-7.478-17.156-12.75c-11.113-12.809-21.134-26.561-31.83-39.74
		c-1.74-2.146-4.493-4.087-7.124-4.753c-4.156-1.051-8.628-0.784-12.931-1.354c-17.55-2.325-35.131-4.478-52.592-7.349
		c-4.096-0.673-5.214,0.496-5.826,3.695c-1.302,6.797-2.493,13.617-3.698,20.259c-12.636-1.376-25.239-2.354-37.713-4.196
		c-18.044-2.664-36.059-5.637-53.974-9.064c-22.628-4.329-45.009-10.139-65.295-21.249c-21.967-12.032-43.119-25.547-64.68-38.324
		c-19.459-11.533-38.96-22.992-58.508-34.369c-5.016-2.919-5.551-5.773-1.17-9.518c0.645-0.552,1.771-0.538,2.674-0.786
		c-0.394-0.771-0.786-1.541-1.18-2.313c-17.492-2.218-35.028-4.145-52.465-6.739c-16.354-2.43-32.602-5.585-48.902-8.377
		c-3.625-0.622-4.712-2.564-4.871-6.263c-0.388-9.044-0.728-18.183-2.314-27.063c-3.215-17.989-13.081-31.162-30.907-36.907
		c-5.131-1.655-6.515-3.715-4.833-8.479c1.106-3.135,0.346-5.31-3.013-6.75c-3.27-1.399-6.716-2.951-9.298-5.301
		c-9.137-8.314-17.846-17.103-26.891-25.522c-9.874-9.196-21.563-14.678-35.154-14.732c-5.094-0.021-7.164-2.538-7.413-6.438
		c-0.268-4.22,0.535-8.593,1.425-12.779c1.349-6.329,4.833-11.999,3.423-19.12c-2.711-13.695-10.337-24.936-16.565-36.963
		c-6.039-11.663-11.495-23.675-16.412-35.853c-3.358-8.317-2.368-16.382,5.949-21.947c2.067-1.385,4.308-2.509,6.815-3.953
		c-23.661-17.8-26.432-42.256-18.587-57.771c-3.637-7.957-8.577-14.461-9.374-21.438c-1.492-13.081-4.231-25.242-12.532-35.649
		c-9.012-11.299-10.38-23.531-6.585-37.318c2.93-10.647,4.765-21.699,5.91-32.694c0.86-8.267-5.88-17.817-12.521-20.352
		c0-1.526,0-3.051,0-4.577c2.358-4.017,4.803-7.983,7.061-12.055c6.935-12.509,14.326-24.805,20.523-37.673
		c4.849-10.065,7.244-20.845,4.81-32.403c-1.322-6.279-1.622-12.948-1.233-19.37c0.522-8.618,2.041-17.187,3.38-25.738
		c0.447-2.858,0.972-6.113,2.626-8.309c14.735-19.566,26.909-40.664,35.982-63.311c10.568-26.379,19.833-53.279,29.856-79.878
		c1.726-4.578,4.407-8.796,6.939-13.751c-4.962-8.02-4.759-12.767,3.005-19.788c4.473-4.044,3.869-6.727,0.068-10.571
		c-3.991-4.035-2.249-8.805,3.275-10.043c1.222-0.274,2.477-0.403,3.862-0.623c-10.172-25.966-8.098-52.392-6.024-80.003
		c5.655,3.332,10.457,5.909,14.998,8.886c12.313,8.072,24.521,16.234,38.981,20.239c5.985,1.659,10.525,1.771,13.363-5.135
		c0.757-1.843,4.531-2.445,6.918-3.618c0.076,2.062,0.23,4.124,0.187,6.183c-0.016,0.702-0.68,1.373-0.778,2.094
		c-0.674,4.96-0.285,9.633,4.248,13.966c1.108-17.831,6.111-35.05-3.185-51.465c1.908,0,3.816,0,5.723,0
		c3.464,1.193,6.855,2.687,10.401,3.535c63.268,15.133,126.512,30.362,189.856,45.167c24.343,5.69,48.865,10.661,73.407,15.44
		c29.35,5.718,58.789,10.992,88.226,16.253c26.104,4.664,52.203,9.389,78.404,13.451c23.075,3.578,46.277,6.339,69.438,9.343
		c23.913,3.103,47.823,6.257,71.775,9.027c19.119,2.211,38.286,4.029,57.456,5.749c19.201,1.72,38.422,3.24,57.652,4.591
		c18.884,1.327,37.784,2.462,56.69,3.444c17.994,0.935,36,1.769,54.009,2.273c21.681,0.609,43.373,0.986,65.062,1.161
		c24.035,0.192,48.074-0.05,72.109,0.078c15.233,0.081,12.646-0.825,12.731-12.422c0.021-2.714,1.754-7.189,3.615-7.736
		c3.631-1.068,8.301-0.136,9.725,4.566c1.835,6.06,3.069,12.304,4.529,18.476c1.177,4.965,1.917,11.351,7.96,11.652
		c9.668,0.48,17.792,4.517,26.265,8.154c1.344,0.576,3.674,0.349,4.879-0.48c7.215-4.951,14.826-5.146,22.676-2.238
		c11.743,4.346,22.411,12.438,35.824,9.484c3.993,13.634,22.223,20.077,42.106,5.071c14.4,9.589,31.643,6.093,47.671,9.878
		c-5.807,10.335-15.474,14.185-25.451,16.993c-11.649,3.278-21.648,8.735-29.408,18.149c-9.694,11.755-19.487,23.43-30.173,36.261
		c3.258,0,6.654,0.773,9.49-0.159c6.019-1.981,11.738-4.87,17.597-7.349c4.145-1.754,8.25-3.647,12.515-5.056
		c1.383-0.456,4.034-0.101,4.63,0.83c0.78,1.223,0.633,3.629-0.056,5.082c-1.643,3.47-3.838,6.681-5.881,10.118
		c5.72,2.996,12.93-4.04,16.386,3.059c16.023-8.002,31.913-15.866,47.716-23.897c2.471-1.255,4.873-2.971,6.755-4.99
		c5.023-5.392,9.391-11.433,14.671-16.539c7.563-7.313,17.021-10.281,28.771-10.414c-7.745,11.42-19.396,18.534-23.677,31.371
		c23.903-3.737,32.953,4.413,38.97,19.195c5.778-0.402,12.099,0.208,17.75-1.456c11.509-3.385,22.609-8.134,33.967-12.066
		c10.901-3.773,21.915-7.223,34.021-11.187c0,5.364,0.106,8.76-0.03,12.147c-0.137,3.383,0.745,5.888,4.685,5.318
		c5.474-0.793,10.918-1.834,16.337-2.95c4.641-0.954,9.227-2.166,13.549-3.195c0.549,6.686-0.169,12.497,1.758,17.229
		c1.835,4.501,6.434,7.875,10.478,12.502c-15.58,0.826-31.38,1.716-47.187,2.463c-3.867,0.184-8.124-1.155-11.565,0.037
		c-9.396,3.255-18.536,7.308-27.625,11.386c-9.445,4.239-18.997,7.375-28.068,5.588c-10.343,21.65-20.422,42.748-30.499,63.846
		c15.127-8.976,20.034-25.805,31.637-38.983c-4.16,17.826-8.718,34.256-11.705,50.967c-3.611,20.181-6.879,40.529-8.378,60.945
		c-0.887,12.061,1.048,24.559,3.293,36.563c3.234,17.304,10.525,32.968,23.213,45.723c2.416,2.427,4.89,3.238,7.498,1.141
		c5.555-4.461,11.835-8.48,16.06-14.022c6.902-9.058,10.381-19.721,11.915-31.309c2.548-19.254-0.56-36.897-12.082-52.591
		c-2.372-3.23-3.438-6.174-3.054-9.839c1.516-14.444,2.65-28.948,4.806-43.299c2.362-15.715,8.86-29.9,18.803-42.352
		c1.207-1.51,3.617-2.06,5.47-3.054c0.786,2.304,2.18,4.608,2.177,6.911c-0.002,2.097-1.725,4.134-2.329,6.296
		c-0.884,3.161-1.445,6.412-2.144,9.626c0.458,0.376,0.916,0.754,1.375,1.131c1.697-0.742,4.471-1.113,4.883-2.303
		c1.098-3.168,2.09-6.857,1.501-10.039c-2.054-11.086-0.486-16.059,7.371-19.13c2.028-0.796,4.298-0.978,7.729-1.713
		c-2.448-1.27-4.404-1.735-5.457-2.969c-1.226-1.437-2.831-4.299-2.234-5.229c2.284-3.543,4.81-8.011,8.329-9.412
		c4.719-1.879,10.841-2.697,15.66-1.392c13.377,3.629,26.404,8.555,39.527,13.096c1.051,0.364,1.889,1.62,2.612,2.615
		c1.961,2.698,3.808,5.478,6.39,9.225c-0.031,0.53-0.398,2.786-0.259,5.012c0.675,10.948,2.224,21.903,2.03,32.829
		c-0.179,10.055-1.889,20.191-13.44,24.557c-1.059,0.399-2.088,2.182-2.234,3.428c-0.335,2.823-0.276,5.723-0.075,8.569
		c0.321,4.525,4.378,6.982,8.02,4.407c2.94-2.077,5.229-5.219,7.422-8.175c3.58-4.825,6.371-10.32,10.406-14.691
		c2.815-3.05,7.609-5.784,11.299-1.336c5.242,6.321,11.284,12.765,13.979,20.239c4.422,12.271,6.72,25.355,9.326,38.216
		c1.139,5.617,0.83,11.525,1.217,17.934c-6.61-1.188-10.299,2.247-12.948,6.851c-1.769,3.07-2.858,6.54-4.155,9.866
		c-3.606,9.244-7.16,18.506-11.391,29.457c1.504,4.187,7.342,5.124,12.732,6.546c8.008,2.114,16.078,3.996,26.007,6.439
		c20.896-9.912,57.366-30.037,80.35-49.018c15.514-12.811,29.8-26.691,42.505-42.331c3.469-4.268,0.954-6.287-0.738-9.237
		c-2.703-4.703-5.672-9.29-7.948-14.195c-1.17-2.521-1.349-5.979,2.484-6.93c10.189-2.527,20.364-5.229,30.692-7.034
		c11.674-2.042,23.564-2.834,35.25-4.821c9.738-1.655,18.578-5.736,26.748-11.521c12.742-9.027,9.711-25.938,2.296-32.004
		c-6.006-4.914-5.299-10.811,0.79-16.111c5.056-4.4,9.975-9.241,13.799-14.697c4.195-5.985,7.016-12.927,10.525-19.402
		c5.868-10.83,14.924-16.148,27.287-17.346c11.38-1.103,22.794-2.989,33.875-5.789c22.413-5.663,44.593-12.241,66.91-18.298
		c5.467-1.484,8.877-4.485,9.923-10.18c0.623-3.389,1.655-6.704,2.5-10.033c9.992,2.438,17.511-1.014,17.938-8.171
		c0.54-8.998,3.854-16.813,8.692-24.176c2.148-3.274,1.979-6.457,1.398-10.471c-1.402-9.697-2.587-19.743-1.559-29.404
		c1.983-18.663,9.264-36,16.604-53.145c0.759-1.766,3.369-3.906,5.002-3.813c1.767,0.102,4.034,2.296,4.965,4.142
		c2.646,5.252,4.76,6.265,9.583,2.772c3.813-2.763,7.341-6.009,10.625-9.399c2.793-2.887,5.445-3.269,9.061-1.7
		c5.332,2.315,10.912,4.067,16.285,6.304c1.132,0.471,2.283,1.866,2.644,3.07c2.425,8.098,4.649,16.257,6.913,24.401
		c3.877,13.944,7.53,27.955,11.818,41.769c0.659,2.124,4.004,4.231,6.459,4.79c3.566,0.813,7.453,0.209,10.865,0.209
		c1.117,5.065,2.447,9.229,2.871,13.481c0.615,6.183,1.355,7.168,7.309,4.801c5.82-2.314,9.385-0.246,12.25,4.559
		c0.441,0.743,0.979,1.426,2.279,3.298c0-3.374-0.002-5.382,0-7.389 M1698.84,825.841c0.813,5.424,1.552,10.35,2.401,16.014
		c3.918-4.741,7.916-8.53,5.7-14.748C1704.044,826.653,1701.382,826.237,1698.84,825.841z"/>
	<g display="none" clip-path="url(#SVGID_2_)">
		<path display="inline" fill="#FFFFFF" d="M707.242,466.231c109.006,0,168.627-90.31,168.627-168.627c0-2.564,0-5.118-0.173-7.661
			c11.598-8.389,21.61-18.777,29.567-30.677c-10.815,4.794-22.291,7.936-34.039,9.324c12.373-7.407,21.632-19.056,26.055-32.78
			c-11.633,6.903-24.36,11.769-37.633,14.386c-22.444-23.865-59.987-25.018-83.853-2.574
			c-15.392,14.476-21.922,36.045-17.145,56.626c-47.653-2.389-92.05-24.896-122.143-61.92
			c-15.731,27.079-7.696,61.722,18.348,79.113c-9.431-0.28-18.657-2.823-26.898-7.418c0,0.243,0,0.497,0,0.751
			c0.007,28.212,19.894,52.51,47.547,58.097c-8.726,2.38-17.88,2.728-26.761,1.017c7.764,24.143,30.013,40.682,55.369,41.157
			c-20.986,16.494-46.91,25.446-73.602,25.42c-4.716-0.009-9.426-0.295-14.108-0.855c27.103,17.393,58.638,26.619,90.842,26.577"/>
		<g display="inline">
			<g>
				<path fill="#FFFFFF" d="M991.431,289.206H980.2l-3.254-10.178h-16.271l-3.223,10.178h-11.166l16.654-45.75h12.218
					L991.431,289.206z M974.585,271.117l-4.913-15.379c-0.362-1.147-0.617-2.521-0.767-4.115h-0.255
					c-0.106,1.34-0.372,2.67-0.797,3.989l-4.979,15.505H974.585z"/>
				<path fill="#FFFFFF" d="M1048.027,289.206h-10.049v-18.632c0-4.742-1.744-7.114-5.232-7.114c-1.659,0-3.011,0.713-4.052,2.139
					c-1.042,1.423-1.563,3.2-1.563,5.326v18.281h-10.081v-18.823c0-4.614-1.713-6.923-5.137-6.923c-1.724,0-3.101,0.681-4.132,2.042
					c-1.032,1.361-1.547,3.212-1.547,5.552v18.152h-10.083v-32.669h10.083v5.104h0.127c1.041-1.744,2.505-3.164,4.387-4.259
					c1.883-1.096,3.94-1.645,6.174-1.645c4.614,0,7.772,2.032,9.476,6.095c2.488-4.063,6.146-6.095,10.974-6.095
					c7.104,0,10.656,4.383,10.656,13.146V289.206z"/>
				<path fill="#FFFFFF" d="M1085.355,275.743h-21.312c0.339,4.742,3.329,7.114,8.965,7.114c3.595,0,6.753-0.851,9.476-2.553v7.274
					c-3.021,1.617-6.944,2.426-11.772,2.426c-5.275,0-9.369-1.463-12.283-4.388c-2.914-2.924-4.371-7.003-4.371-12.235
					c0-5.424,1.574-9.719,4.722-12.89c3.147-3.169,7.019-4.754,11.613-4.754c4.765,0,8.449,1.415,11.055,4.244
					s3.908,6.668,3.908,11.518V275.743z M1076.008,269.554c0-4.679-1.893-7.019-5.679-7.019c-1.617,0-3.015,0.67-4.195,2.01
					s-1.898,3.011-2.153,5.009H1076.008z"/>
				<path fill="#FFFFFF" d="M1112.665,265.629c-1.212-0.658-2.626-0.989-4.243-0.989c-2.19,0-3.903,0.804-5.137,2.41
					c-1.233,1.604-1.85,3.791-1.85,6.556v15.601h-10.082v-32.669h10.082v6.062h0.127c1.596-4.424,4.468-6.636,8.614-6.636
					c1.063,0,1.894,0.127,2.488,0.382V265.629z"/>
				<path fill="#FFFFFF" d="M1122.716,251.368c-1.703,0-3.095-0.506-4.18-1.516c-1.085-1.009-1.627-2.249-1.627-3.716
					c0-1.512,0.542-2.744,1.627-3.701c1.085-0.958,2.477-1.436,4.18-1.436c1.723,0,3.121,0.478,4.194,1.436
					c1.074,0.957,1.611,2.189,1.611,3.701c0,1.53-0.537,2.786-1.611,3.765C1125.837,250.879,1124.438,251.368,1122.716,251.368z
					 M1127.693,289.206h-10.082v-32.669h10.082V289.206z"/>
				<path fill="#FFFFFF" d="M1160.937,288.026c-2.276,1.318-5.563,1.979-9.858,1.979c-5.02,0-9.082-1.521-12.188-4.563
					c-3.106-3.041-4.658-6.966-4.658-11.772c0-5.551,1.664-9.927,4.993-13.128c3.329-3.202,7.778-4.803,13.353-4.803
					c3.849,0,6.636,0.512,8.358,1.532v8.551c-2.106-1.574-4.456-2.361-7.052-2.361c-2.892,0-5.184,0.846-6.875,2.536
					c-1.69,1.692-2.535,4.025-2.535,7.003c0,2.892,0.808,5.164,2.425,6.812c1.615,1.648,3.838,2.472,6.667,2.472
					c2.51,0,4.966-0.785,7.37-2.359V288.026z"/>
				<path fill="#FFFFFF" d="M1194.723,289.206h-9.538v-4.689h-0.129c-2.19,3.659-5.435,5.488-9.73,5.488
					c-3.17,0-5.663-0.899-7.481-2.696c-1.818-1.798-2.729-4.196-2.729-7.195c0-6.338,3.754-9.996,11.264-10.975l8.868-1.181
					c0-3.572-1.935-5.359-5.807-5.359c-3.892,0-7.593,1.159-11.103,3.478v-7.594c1.404-0.722,3.323-1.36,5.76-1.913
					c2.435-0.555,4.652-0.831,6.651-0.831c9.315,0,13.974,4.647,13.974,13.943V289.206z M1185.247,275.934v-2.201l-5.935,0.767
					c-3.275,0.426-4.912,1.903-4.912,4.435c0,1.148,0.397,2.089,1.196,2.823c0.796,0.733,1.877,1.101,3.237,1.101
					c1.894,0,3.437-0.653,4.627-1.962C1184.651,279.588,1185.247,277.934,1185.247,275.934z"/>
				<path fill="#FFFFFF" d="M972.735,309.511h-16.144v11.23h14.834v8.358h-14.834v17.771h-10.306v-45.752h26.45V309.511z"/>
				<path fill="#FFFFFF" d="M1008.626,333.407h-21.312c0.34,4.742,3.329,7.114,8.965,7.114c3.595,0,6.754-0.85,9.476-2.553v7.275
					c-3.021,1.616-6.943,2.424-11.771,2.424c-5.276,0-9.371-1.462-12.284-4.387c-2.914-2.924-4.371-7.003-4.371-12.235
					c0-5.424,1.574-9.72,4.723-12.889c3.146-3.17,7.02-4.754,11.613-4.754c4.764,0,8.448,1.415,11.054,4.243
					c2.605,2.829,3.908,6.667,3.908,11.518V333.407z M999.279,327.218c0-4.68-1.895-7.02-5.68-7.02c-1.617,0-3.015,0.671-4.196,2.01
					c-1.179,1.341-1.898,3.011-2.153,5.01H999.279z"/>
				<path fill="#FFFFFF" d="M1043.976,333.407h-21.312c0.34,4.742,3.329,7.114,8.965,7.114c3.594,0,6.753-0.85,9.476-2.553v7.275
					c-3.021,1.616-6.943,2.424-11.772,2.424c-5.275,0-9.37-1.462-12.283-4.387c-2.913-2.924-4.371-7.003-4.371-12.235
					c0-5.424,1.575-9.72,4.723-12.889c3.147-3.17,7.019-4.754,11.613-4.754c4.764,0,8.449,1.415,11.055,4.243
					c2.605,2.829,3.907,6.667,3.907,11.518V333.407z M1034.629,327.218c0-4.68-1.894-7.02-5.68-7.02
					c-1.617,0-3.015,0.671-4.195,2.01c-1.18,1.341-1.898,3.011-2.152,5.01H1034.629z"/>
				<path fill="#FFFFFF" d="M1060.055,346.871h-10.081v-48.366h10.081V346.871z"/>
				<path fill="#FFFFFF" d="M1066.404,346.01v-8.168c1.66,1,3.313,1.744,4.962,2.232c1.647,0.49,3.206,0.733,4.675,0.733
					c1.786,0,3.195-0.243,4.226-0.733c1.033-0.488,1.547-1.232,1.547-2.232c0-0.638-0.232-1.17-0.701-1.595
					c-0.468-0.426-1.068-0.799-1.803-1.118c-0.732-0.318-1.537-0.606-2.407-0.862c-0.873-0.253-1.713-0.541-2.521-0.859
					c-1.299-0.488-2.44-1.017-3.431-1.58c-0.989-0.563-1.818-1.217-2.488-1.961s-1.18-1.606-1.531-2.585
					c-0.351-0.979-0.527-2.138-0.527-3.479c0-1.827,0.398-3.401,1.197-4.721c0.797-1.318,1.86-2.398,3.191-3.238
					c1.328-0.841,2.85-1.456,4.561-1.851c1.713-0.394,3.494-0.59,5.345-0.59c1.445,0,2.914,0.112,4.402,0.334
					c1.488,0.224,2.956,0.549,4.402,0.974v7.784c-1.276-0.744-2.643-1.303-4.099-1.675c-1.457-0.372-2.889-0.558-4.292-0.558
					c-0.66,0-1.281,0.059-1.866,0.175c-0.584,0.117-1.101,0.287-1.547,0.511s-0.797,0.511-1.054,0.861
					c-0.255,0.352-0.382,0.75-0.382,1.196c0,0.596,0.191,1.105,0.573,1.532c0.383,0.425,0.883,0.792,1.499,1.101
					c0.619,0.308,1.303,0.585,2.059,0.829s1.506,0.495,2.249,0.75c1.341,0.468,2.554,0.979,3.637,1.531
					c1.085,0.554,2.017,1.201,2.792,1.946c0.777,0.745,1.373,1.616,1.787,2.616s0.622,2.19,0.622,3.573
					c0,1.936-0.42,3.589-1.261,4.96c-0.84,1.372-1.957,2.489-3.349,3.351c-1.394,0.861-3,1.489-4.818,1.883
					c-1.819,0.394-3.707,0.59-5.663,0.59C1072.795,347.668,1069.468,347.115,1066.404,346.01z"/>
			</g>
			<rect x="944" y="418.298" fill="#FFFFFF" width="356" height="38"/>
			<g>
				<path fill="#FFFFFF" d="M946.423,382.703v-13.484h6.3v0.855h-5.37v5.407h4.984v0.846h-4.984v5.529h5.68v0.847H946.423z"/>
				<path fill="#FFFFFF" d="M962.409,382.703v-5.604c0-2.313-0.834-3.471-2.501-3.471c-0.928,0-1.689,0.341-2.285,1.021
					c-0.596,0.681-0.894,1.522-0.894,2.525v5.529h-0.865v-9.63h0.865v1.75h0.038c0.702-1.323,1.799-1.984,3.292-1.984
					c1.041,0,1.837,0.347,2.389,1.039c0.551,0.693,0.827,1.682,0.827,2.967v5.858H962.409z"/>
				<path fill="#FFFFFF" d="M969.979,382.571c-0.451,0.213-0.874,0.319-1.27,0.319c-1.423,0-2.135-0.853-2.135-2.558v-6.469h-1.73
					v-0.791h1.73v-2.5c0.138-0.051,0.282-0.101,0.434-0.15c0.149-0.045,0.294-0.091,0.432-0.142v2.792h2.539v0.791h-2.539v6.356
					c0,0.664,0.105,1.146,0.315,1.443s0.565,0.446,1.067,0.446c0.357,0,0.742-0.116,1.156-0.348V382.571z"/>
				<path fill="#FFFFFF" d="M972.094,377.927c0,1.322,0.306,2.356,0.918,3.103c0.611,0.746,1.448,1.119,2.515,1.119
					c1.078,0,2.132-0.398,3.159-1.194v0.922c-0.996,0.708-2.109,1.062-3.338,1.062c-1.24,0-2.244-0.444-3.009-1.334
					c-0.765-0.892-1.147-2.147-1.147-3.771c0-1.404,0.4-2.588,1.199-3.549c0.799-0.963,1.838-1.444,3.117-1.444
					c1.197,0,2.115,0.42,2.755,1.261c0.64,0.839,0.96,1.986,0.96,3.441v0.386H972.094z M978.319,377.137
					c-0.037-1.109-0.304-1.972-0.8-2.586c-0.495-0.615-1.178-0.923-2.05-0.923c-0.902,0-1.65,0.303-2.242,0.908
					c-0.593,0.604-0.957,1.472-1.096,2.601H978.319z"/>
				<path fill="#FFFFFF" d="M986.152,373.977c-0.288-0.207-0.627-0.311-1.016-0.311c-0.758,0-1.396,0.393-1.909,1.176
					c-0.514,0.784-0.771,1.896-0.771,3.338v4.523h-0.846v-9.63h0.846v2.136h0.038c0.22-0.733,0.567-1.305,1.044-1.712
					s1.028-0.611,1.655-0.611c0.357,0,0.677,0.057,0.959,0.17V373.977z"/>
				<path fill="#FFFFFF" d="M998.997,382.703v-1.928h-0.037c-0.308,0.658-0.754,1.184-1.341,1.575
					c-0.586,0.392-1.236,0.587-1.951,0.587c-0.914,0-1.639-0.257-2.172-0.771c-0.532-0.515-0.799-1.163-0.799-1.946
					c0-1.681,1.112-2.695,3.338-3.047l2.962-0.442c0-2.068-0.777-3.104-2.332-3.104c-1.06,0-2.09,0.427-3.093,1.279v-1.043
					c0.356-0.282,0.841-0.523,1.451-0.725c0.612-0.2,1.188-0.301,1.727-0.301c0.99,0,1.757,0.308,2.299,0.922
					c0.543,0.614,0.813,1.508,0.813,2.68v6.263H998.997z M996.346,377.907c-1.01,0.145-1.718,0.378-2.126,0.701
					c-0.406,0.322-0.61,0.848-0.61,1.575c0,0.569,0.189,1.04,0.569,1.41c0.379,0.37,0.907,0.555,1.583,0.555
					c0.929,0,1.699-0.344,2.314-1.03c0.614-0.687,0.921-1.571,0.921-2.656v-0.94L996.346,377.907z"/>
				<path fill="#FFFFFF" d="M1011.842,382.571c-0.451,0.213-0.874,0.319-1.27,0.319c-1.423,0-2.135-0.853-2.135-2.558v-6.469h-1.729
					v-0.791h1.729v-2.5c0.139-0.051,0.283-0.101,0.433-0.15c0.151-0.045,0.296-0.091,0.434-0.142v2.792h2.538v0.791h-2.538v6.356
					c0,0.664,0.104,1.146,0.314,1.443s0.565,0.446,1.067,0.446c0.357,0,0.742-0.116,1.156-0.348V382.571z"/>
				<path fill="#FFFFFF" d="M1017.615,382.938c-1.403,0-2.515-0.462-3.333-1.386c-0.817-0.926-1.227-2.127-1.227-3.607
					c0-1.598,0.427-2.849,1.284-3.752c0.854-0.902,1.981-1.354,3.379-1.354c1.374,0,2.458,0.448,3.254,1.344
					c0.796,0.897,1.194,2.139,1.194,3.725c0,1.498-0.406,2.711-1.218,3.639S1019.027,382.938,1017.615,382.938z M1017.682,373.628
					c-1.135,0-2.039,0.383-2.713,1.148c-0.674,0.765-1.011,1.827-1.011,3.188c0,1.26,0.329,2.271,0.987,3.037
					c0.658,0.765,1.559,1.147,2.699,1.147c1.159,0,2.053-0.376,2.68-1.128c0.627-0.753,0.94-1.797,0.94-3.132
					c0-1.373-0.313-2.427-0.937-3.159C1019.705,373.996,1018.822,373.628,1017.682,373.628z"/>
				<path fill="#FFFFFF" d="M1025.458,380.991h-0.037v6.142h-0.865v-14.06h0.865v1.984h0.037c0.346-0.708,0.839-1.255,1.481-1.641
					s1.349-0.578,2.12-0.578c1.223,0,2.177,0.422,2.863,1.265c0.687,0.844,1.03,1.989,1.03,3.438c0,1.61-0.394,2.913-1.18,3.907
					c-0.788,0.993-1.826,1.489-3.118,1.489C1027.214,382.938,1026.148,382.289,1025.458,380.991z M1025.421,377.408v1.214
					c0,0.966,0.304,1.795,0.911,2.487c0.609,0.692,1.408,1.039,2.398,1.039c0.984,0,1.783-0.421,2.397-1.265
					c0.615-0.844,0.922-1.951,0.922-3.324c0-1.204-0.282-2.16-0.847-2.868c-0.563-0.708-1.316-1.063-2.256-1.063
					c-1.123,0-1.991,0.377-2.605,1.13C1025.728,375.51,1025.421,376.393,1025.421,377.408z"/>
				<path fill="#FFFFFF" d="M1035.765,370.647c-0.188,0-0.354-0.068-0.499-0.207c-0.145-0.138-0.217-0.313-0.217-0.526
					c0-0.206,0.074-0.374,0.222-0.502c0.147-0.129,0.313-0.193,0.494-0.193c0.194,0,0.364,0.063,0.512,0.188
					c0.148,0.126,0.222,0.296,0.222,0.508c0,0.201-0.072,0.373-0.217,0.519C1036.138,370.576,1035.965,370.647,1035.765,370.647z
					 M1035.341,382.703v-9.63h0.865v9.63H1035.341z"/>
				<path fill="#FFFFFF" d="M1045.525,382.279c-0.715,0.439-1.567,0.658-2.559,0.658c-1.311,0-2.366-0.449-3.168-1.349
					c-0.804-0.899-1.204-2.077-1.204-3.531c0-1.529,0.451-2.781,1.354-3.757c0.902-0.975,2.063-1.462,3.479-1.462
					c0.734,0,1.445,0.151,2.135,0.451v0.979c-0.689-0.427-1.444-0.641-2.266-0.641c-1.129,0-2.044,0.406-2.747,1.219
					c-0.701,0.812-1.052,1.863-1.052,3.154c0,1.248,0.321,2.251,0.963,3.01c0.644,0.759,1.491,1.138,2.544,1.138
					c0.966,0,1.806-0.258,2.521-0.771V382.279z"/>
				<path fill="#FFFFFF" d="M1056.922,382.571c-0.451,0.213-0.874,0.319-1.27,0.319c-1.423,0-2.135-0.853-2.135-2.558v-6.469h-1.73
					v-0.791h1.73v-2.5c0.139-0.051,0.282-0.101,0.434-0.15c0.149-0.045,0.294-0.091,0.432-0.142v2.792h2.539v0.791h-2.539v6.356
					c0,0.664,0.105,1.146,0.315,1.443s0.566,0.446,1.067,0.446c0.357,0,0.742-0.116,1.156-0.348V382.571z"/>
				<path fill="#FFFFFF" d="M1062.695,382.938c-1.404,0-2.515-0.462-3.333-1.386c-0.818-0.926-1.228-2.127-1.228-3.607
					c0-1.598,0.429-2.849,1.284-3.752c0.854-0.902,1.981-1.354,3.381-1.354c1.372,0,2.457,0.448,3.253,1.344
					c0.796,0.897,1.194,2.139,1.194,3.725c0,1.498-0.406,2.711-1.218,3.639C1065.217,382.474,1064.105,382.938,1062.695,382.938z
					 M1062.762,373.628c-1.135,0-2.039,0.383-2.713,1.148c-0.674,0.765-1.011,1.827-1.011,3.188c0,1.26,0.328,2.271,0.986,3.037
					c0.658,0.765,1.559,1.147,2.699,1.147c1.159,0,2.054-0.376,2.68-1.128c0.628-0.753,0.94-1.797,0.94-3.132
					c0-1.373-0.312-2.427-0.936-3.159C1064.785,373.996,1063.902,373.628,1062.762,373.628z"/>
				<path fill="#FFFFFF" d="M1080.421,382.703l-4.607-4.759h-0.038v4.759h-0.865v-14.256h0.865v9.188h0.038l4.372-4.562h1.119
					l-4.569,4.665l4.937,4.965H1080.421z"/>
				<path fill="#FFFFFF" d="M1090.003,382.703v-5.604c0-2.313-0.834-3.471-2.501-3.471c-0.928,0-1.689,0.341-2.285,1.021
					c-0.596,0.681-0.894,1.522-0.894,2.525v5.529h-0.865v-9.63h0.865v1.75h0.038c0.702-1.323,1.799-1.984,3.29-1.984
					c1.041,0,1.838,0.347,2.39,1.039c0.552,0.693,0.826,1.682,0.826,2.967v5.858H1090.003z"/>
				<path fill="#FFFFFF" d="M1097.629,382.938c-1.404,0-2.515-0.462-3.333-1.386c-0.818-0.926-1.228-2.127-1.228-3.607
					c0-1.598,0.428-2.849,1.284-3.752c0.854-0.902,1.981-1.354,3.38-1.354c1.373,0,2.457,0.448,3.254,1.344
					c0.796,0.897,1.193,2.139,1.193,3.725c0,1.498-0.406,2.711-1.217,3.639C1100.15,382.474,1099.04,382.938,1097.629,382.938z
					 M1097.695,373.628c-1.135,0-2.04,0.383-2.713,1.148c-0.675,0.765-1.012,1.827-1.012,3.188c0,1.26,0.329,2.271,0.987,3.037
					c0.659,0.765,1.559,1.147,2.699,1.147c1.159,0,2.054-0.376,2.68-1.128c0.627-0.753,0.94-1.797,0.94-3.132
					c0-1.373-0.312-2.427-0.936-3.159C1099.719,373.996,1098.836,373.628,1097.695,373.628z"/>
				<path fill="#FFFFFF" d="M1112.731,382.703h-0.81l-2.097-7.259c-0.056-0.201-0.107-0.471-0.15-0.81h-0.047
					c-0.014,0.145-0.075,0.407-0.188,0.79l-2.351,7.278h-0.809l-2.905-9.63h0.959l2.238,7.684c0.056,0.2,0.1,0.47,0.131,0.809h0.075
					c0.013-0.183,0.072-0.451,0.18-0.809l2.444-7.684h0.592l2.182,7.684c0.051,0.182,0.094,0.451,0.132,0.809h0.075
					c0-0.183,0.053-0.451,0.16-0.809l2.285-7.684h0.893L1112.731,382.703z"/>
				<path fill="#FFFFFF" d="M1126.723,370.074v12.629h-0.921v-12.629h-3.894v-0.855h8.708v0.855H1126.723z"/>
				<path fill="#FFFFFF" d="M1139.268,382.703h-0.81l-2.097-7.259c-0.057-0.201-0.106-0.471-0.15-0.81h-0.047
					c-0.012,0.145-0.075,0.407-0.188,0.79l-2.351,7.278h-0.809l-2.906-9.63h0.96l2.238,7.684c0.056,0.2,0.101,0.47,0.131,0.809
					h0.076c0.012-0.183,0.071-0.451,0.179-0.809l2.444-7.684h0.593l2.182,7.684c0.05,0.182,0.093,0.451,0.131,0.809h0.075
					c0-0.183,0.053-0.451,0.16-0.809l2.284-7.684h0.895L1139.268,382.703z"/>
				<path fill="#FFFFFF" d="M1144.561,370.647c-0.188,0-0.354-0.068-0.498-0.207c-0.144-0.138-0.217-0.313-0.217-0.526
					c0-0.206,0.074-0.374,0.222-0.502c0.147-0.129,0.313-0.193,0.493-0.193c0.195,0,0.365,0.063,0.513,0.188
					c0.147,0.126,0.222,0.296,0.222,0.508c0,0.201-0.072,0.373-0.217,0.519C1144.935,370.576,1144.762,370.647,1144.561,370.647z
					 M1144.139,382.703v-9.63h0.864v9.63H1144.139z"/>
				<path fill="#FFFFFF" d="M1151.896,382.571c-0.451,0.213-0.874,0.319-1.27,0.319c-1.423,0-2.134-0.853-2.134-2.558v-6.469h-1.73
					v-0.791h1.73v-2.5c0.138-0.051,0.281-0.101,0.432-0.15c0.151-0.045,0.295-0.091,0.434-0.142v2.792h2.538v0.791h-2.538v6.356
					c0,0.664,0.104,1.146,0.314,1.443c0.21,0.298,0.565,0.446,1.066,0.446c0.358,0,0.744-0.116,1.157-0.348V382.571z"/>
				<path fill="#FFFFFF" d="M1157.613,382.571c-0.452,0.213-0.875,0.319-1.27,0.319c-1.423,0-2.135-0.853-2.135-2.558v-6.469h-1.73
					v-0.791h1.73v-2.5c0.138-0.051,0.281-0.101,0.433-0.15c0.151-0.045,0.294-0.091,0.433-0.142v2.792h2.539v0.791h-2.539v6.356
					c0,0.664,0.104,1.146,0.315,1.443c0.21,0.298,0.564,0.446,1.067,0.446c0.356,0,0.742-0.116,1.156-0.348V382.571z"/>
				<path fill="#FFFFFF" d="M1159.729,377.927c0,1.322,0.306,2.356,0.916,3.103c0.611,0.746,1.45,1.119,2.517,1.119
					c1.077,0,2.13-0.398,3.158-1.194v0.922c-0.997,0.708-2.109,1.062-3.338,1.062c-1.241,0-2.244-0.444-3.009-1.334
					c-0.766-0.892-1.147-2.147-1.147-3.771c0-1.404,0.399-2.588,1.198-3.549c0.8-0.963,1.839-1.444,3.117-1.444
					c1.198,0,2.116,0.42,2.757,1.261c0.638,0.839,0.958,1.986,0.958,3.441v0.386H1159.729z M1165.954,377.137
					c-0.038-1.109-0.305-1.972-0.799-2.586c-0.497-0.615-1.18-0.923-2.052-0.923c-0.902,0-1.649,0.303-2.242,0.908
					c-0.592,0.604-0.957,1.472-1.095,2.601H1165.954z"/>
				<path fill="#FFFFFF" d="M1173.787,373.977c-0.288-0.207-0.627-0.311-1.016-0.311c-0.759,0-1.396,0.393-1.909,1.176
					c-0.514,0.784-0.771,1.896-0.771,3.338v4.523h-0.847v-9.63h0.847v2.136h0.037c0.22-0.733,0.567-1.305,1.044-1.712
					c0.476-0.407,1.027-0.611,1.655-0.611c0.356,0,0.677,0.057,0.959,0.17V373.977z"/>
				<path fill="#FFFFFF" d="M1177.539,373.441h-0.687l1.175-4.223h0.979L1177.539,373.441z"/>
				<path fill="#FFFFFF" d="M1179.278,382.279v-1.044c0.326,0.283,0.721,0.506,1.185,0.669c0.465,0.162,0.865,0.244,1.204,0.244
					c1.511,0,2.266-0.617,2.266-1.853c0-0.426-0.165-0.791-0.498-1.091c-0.332-0.301-0.871-0.61-1.617-0.931
					c-0.922-0.401-1.569-0.816-1.942-1.246c-0.372-0.43-0.559-0.951-0.559-1.566c0-0.783,0.299-1.416,0.898-1.899
					c0.598-0.482,1.336-0.724,2.214-0.724c0.827,0,1.536,0.169,2.125,0.508v0.978c-0.715-0.464-1.454-0.696-2.22-0.696
					c-0.633,0-1.145,0.166-1.531,0.494c-0.39,0.33-0.584,0.758-0.584,1.284c0,0.458,0.122,0.829,0.366,1.114
					c0.245,0.285,0.784,0.613,1.618,0.982c1.003,0.451,1.692,0.87,2.068,1.255c0.376,0.386,0.564,0.898,0.564,1.538
					c0,0.765-0.287,1.396-0.861,1.895c-0.572,0.499-1.365,0.747-2.373,0.747C1180.673,382.938,1179.899,382.719,1179.278,382.279z"
					/>
				<path fill="#FFFFFF" d="M1196.393,382.938c-1.404,0-2.516-0.462-3.334-1.386c-0.818-0.926-1.227-2.127-1.227-3.607
					c0-1.598,0.428-2.849,1.283-3.752c0.855-0.902,1.982-1.354,3.381-1.354c1.372,0,2.457,0.448,3.254,1.344
					c0.796,0.897,1.193,2.139,1.193,3.725c0,1.498-0.406,2.711-1.218,3.639S1197.803,382.938,1196.393,382.938z M1196.459,373.628
					c-1.136,0-2.04,0.383-2.714,1.148c-0.674,0.765-1.011,1.827-1.011,3.188c0,1.26,0.329,2.271,0.987,3.037
					c0.658,0.765,1.559,1.147,2.699,1.147c1.159,0,2.053-0.376,2.68-1.128c0.626-0.753,0.94-1.797,0.94-3.132
					c0-1.373-0.312-2.427-0.936-3.159C1198.482,373.996,1197.599,373.628,1196.459,373.628z"/>
				<path fill="#FFFFFF" d="M1204.235,380.991h-0.038v6.142h-0.865v-14.06h0.865v1.984h0.038c0.345-0.708,0.837-1.255,1.48-1.641
					c0.643-0.386,1.35-0.578,2.121-0.578c1.222,0,2.177,0.422,2.862,1.265c0.688,0.844,1.03,1.989,1.03,3.438
					c0,1.61-0.395,2.913-1.181,3.907c-0.786,0.993-1.825,1.489-3.117,1.489C1205.99,382.938,1204.924,382.289,1204.235,380.991z
					 M1204.197,377.408v1.214c0,0.966,0.304,1.795,0.912,2.487s1.407,1.039,2.397,1.039c0.984,0,1.784-0.421,2.398-1.265
					s0.921-1.951,0.921-3.324c0-1.204-0.282-2.16-0.846-2.868c-0.564-0.708-1.316-1.063-2.257-1.063c-1.122,0-1.99,0.377-2.604,1.13
					C1204.504,375.51,1204.197,376.393,1204.197,377.408z"/>
				<path fill="#FFFFFF" d="M1214.541,370.647c-0.188,0-0.354-0.068-0.498-0.207c-0.145-0.138-0.217-0.313-0.217-0.526
					c0-0.206,0.074-0.374,0.221-0.502c0.148-0.129,0.312-0.193,0.494-0.193c0.193,0,0.365,0.063,0.513,0.188
					c0.147,0.126,0.221,0.296,0.221,0.508c0,0.201-0.072,0.373-0.216,0.519C1214.913,370.576,1214.741,370.647,1214.541,370.647z
					 M1214.117,382.703v-9.63h0.865v9.63H1214.117z"/>
				<path fill="#FFFFFF" d="M1224.612,382.703v-5.604c0-2.313-0.834-3.471-2.502-3.471c-0.928,0-1.688,0.341-2.285,1.021
					c-0.595,0.681-0.893,1.522-0.893,2.525v5.529h-0.865v-9.63h0.865v1.75h0.037c0.702-1.323,1.8-1.984,3.292-1.984
					c1.04,0,1.836,0.347,2.389,1.039c0.551,0.693,0.827,1.682,0.827,2.967v5.858H1224.612z"/>
				<path fill="#FFFFFF" d="M1228.796,370.647c-0.188,0-0.354-0.068-0.498-0.207c-0.145-0.138-0.216-0.313-0.216-0.526
					c0-0.206,0.073-0.374,0.221-0.502c0.147-0.129,0.312-0.193,0.493-0.193c0.194,0,0.366,0.063,0.513,0.188
					c0.147,0.126,0.221,0.296,0.221,0.508c0,0.201-0.071,0.373-0.216,0.519C1229.169,370.576,1228.997,370.647,1228.796,370.647z
					 M1228.373,382.703v-9.63h0.865v9.63H1228.373z"/>
				<path fill="#FFFFFF" d="M1236.188,382.938c-1.404,0-2.516-0.462-3.334-1.386c-0.817-0.926-1.228-2.127-1.228-3.607
					c0-1.598,0.429-2.849,1.284-3.752c0.855-0.902,1.982-1.354,3.381-1.354c1.373,0,2.457,0.448,3.253,1.344
					c0.797,0.897,1.194,2.139,1.194,3.725c0,1.498-0.405,2.711-1.217,3.639C1238.709,382.474,1237.598,382.938,1236.188,382.938z
					 M1236.253,373.628c-1.134,0-2.038,0.383-2.712,1.148c-0.675,0.765-1.011,1.827-1.011,3.188c0,1.26,0.328,2.271,0.986,3.037
					c0.659,0.765,1.559,1.147,2.698,1.147c1.16,0,2.054-0.376,2.681-1.128c0.628-0.753,0.94-1.797,0.94-3.132
					c0-1.373-0.313-2.427-0.936-3.159C1238.276,373.996,1237.394,373.628,1236.253,373.628z"/>
				<path fill="#FFFFFF" d="M1249.672,382.703v-5.604c0-2.313-0.834-3.471-2.502-3.471c-0.928,0-1.689,0.341-2.284,1.021
					c-0.596,0.681-0.894,1.522-0.894,2.525v5.529h-0.865v-9.63h0.865v1.75h0.037c0.703-1.323,1.8-1.984,3.291-1.984
					c1.041,0,1.838,0.347,2.39,1.039c0.552,0.693,0.826,1.682,0.826,2.967v5.858H1249.672z"/>
				<path fill="#FFFFFF" d="M1252.936,382.279v-1.044c0.324,0.283,0.721,0.506,1.184,0.669c0.464,0.162,0.865,0.244,1.205,0.244
					c1.51,0,2.266-0.617,2.266-1.853c0-0.426-0.166-0.791-0.498-1.091c-0.333-0.301-0.872-0.61-1.619-0.931
					c-0.92-0.401-1.567-0.816-1.94-1.246s-0.56-0.951-0.56-1.566c0-0.783,0.299-1.416,0.897-1.899
					c0.6-0.482,1.337-0.724,2.215-0.724c0.828,0,1.535,0.169,2.125,0.508v0.978c-0.714-0.464-1.455-0.696-2.219-0.696
					c-0.634,0-1.145,0.166-1.533,0.494c-0.389,0.33-0.583,0.758-0.583,1.284c0,0.458,0.122,0.829,0.367,1.114
					s0.783,0.613,1.616,0.982c1.003,0.451,1.693,0.87,2.069,1.255c0.376,0.386,0.564,0.898,0.564,1.538
					c0,0.765-0.287,1.396-0.86,1.895c-0.574,0.499-1.365,0.747-2.374,0.747C1254.33,382.938,1253.556,382.719,1252.936,382.279z"/>
				<path fill="#FFFFFF" d="M1270.049,382.938c-1.404,0-2.516-0.462-3.333-1.386c-0.818-0.926-1.228-2.127-1.228-3.607
					c0-1.598,0.428-2.849,1.283-3.752c0.855-0.902,1.982-1.354,3.381-1.354c1.373,0,2.457,0.448,3.254,1.344
					c0.796,0.897,1.193,2.139,1.193,3.725c0,1.498-0.405,2.711-1.217,3.639C1272.57,382.474,1271.459,382.938,1270.049,382.938z
					 M1270.114,373.628c-1.134,0-2.038,0.383-2.712,1.148c-0.675,0.765-1.012,1.827-1.012,3.188c0,1.26,0.329,2.271,0.987,3.037
					c0.659,0.765,1.559,1.147,2.699,1.147c1.159,0,2.054-0.376,2.681-1.128c0.626-0.753,0.939-1.797,0.939-3.132
					c0-1.373-0.312-2.427-0.936-3.159C1272.138,373.996,1271.256,373.628,1270.114,373.628z"/>
				<path fill="#FFFFFF" d="M1283.533,382.703v-5.604c0-2.313-0.834-3.471-2.502-3.471c-0.928,0-1.688,0.341-2.284,1.021
					c-0.596,0.681-0.894,1.522-0.894,2.525v5.529h-0.865v-9.63h0.865v1.75h0.037c0.703-1.323,1.8-1.984,3.292-1.984
					c1.04,0,1.837,0.347,2.389,1.039c0.552,0.693,0.827,1.682,0.827,2.967v5.858H1283.533z"/>
				<path fill="#FFFFFF" d="M1292.993,370.647c-0.188,0-0.354-0.068-0.498-0.207c-0.145-0.138-0.217-0.313-0.217-0.526
					c0-0.206,0.073-0.374,0.221-0.502c0.147-0.129,0.313-0.193,0.494-0.193c0.194,0,0.365,0.063,0.513,0.188
					c0.147,0.126,0.221,0.296,0.221,0.508c0,0.201-0.072,0.373-0.217,0.519C1293.366,370.576,1293.193,370.647,1292.993,370.647z
					 M1292.57,382.703v-9.63h0.865v9.63H1292.57z"/>
				<path fill="#FFFFFF" d="M1300.327,382.571c-0.451,0.213-0.874,0.319-1.269,0.319c-1.423,0-2.135-0.853-2.135-2.558v-6.469h-1.73
					v-0.791h1.73v-2.5c0.138-0.051,0.282-0.101,0.433-0.15c0.15-0.045,0.295-0.091,0.433-0.142v2.792h2.538v0.791h-2.538v6.356
					c0,0.664,0.104,1.146,0.314,1.443s0.565,0.446,1.067,0.446c0.357,0,0.743-0.116,1.156-0.348V382.571z"/>
				<path fill="#FFFFFF" d="M1302.829,382.872c-0.214,0-0.393-0.073-0.536-0.221c-0.145-0.147-0.217-0.327-0.217-0.541
					c0-0.22,0.072-0.399,0.217-0.541c0.144-0.141,0.322-0.211,0.536-0.211s0.396,0.07,0.545,0.211
					c0.15,0.142,0.227,0.321,0.227,0.541c0,0.214-0.076,0.394-0.227,0.541C1303.225,382.799,1303.043,382.872,1302.829,382.872z"/>
			</g>
		</g>
	</g>
</g>
</svg>
