<?xml version="1.0" encoding="utf-8"?>
<!-- Generator: Adobe Illustrator 16.0.0, SVG Export Plug-In . SVG Version: 6.00 Build 0)  -->
<!DOCTYPE svg PUBLIC "-//W3C//DTD SVG 1.1//EN" "http://www.w3.org/Graphics/SVG/1.1/DTD/svg11.dtd">
<svg version="1.1" id="Layer_1" xmlns="http://www.w3.org/2000/svg" xmlns:xlink="http://www.w3.org/1999/xlink" x="0px" y="0px"
	 width="1920px" height="1080px" viewBox="0 0 1920 1080" enable-background="new 0 0 1920 1080" xml:space="preserve">
<rect fill="#3FA9F5" width="1920" height="1080"/>
<g>
	<defs>
		<rect id="SVGID_1_" x="2.298" width="1920" height="1080"/>
	</defs>
	<clipPath id="SVGID_2_">
		<use xlink:href="#SVGID_1_"  overflow="visible"/>
	</clipPath>
	<g clip-path="url(#SVGID_2_)">
		<path fill="#FFFFFF" d="M1701.138,973.841c0.813,5.424,1.551,10.35,2.4,16.014c3.918-4.741,7.916-8.53,5.701-14.748
			C1706.341,974.653,1703.679,974.237,1701.138,973.841z"/>
		<path fill="#FFFFFF" d="M2145.702-152.409l-0.131,7.203c0.045,0.063,0.084,0.119,0.131,0.187
			C2145.702-148.395,2145.7-150.402,2145.702-152.409z"/>
		<path fill="#FFFFFF" d="M2131.173-152.877c-5.953,2.367-6.693,1.382-7.309-4.801c-0.424-4.252-1.754-8.416-2.871-13.481
			c-3.412,0-7.299,0.604-10.865-0.21c-2.455-0.559-5.801-2.666-6.459-4.789c-4.289-13.814-7.941-27.826-11.818-41.77
			c-2.264-8.145-4.488-16.303-6.914-24.401c-0.359-1.204-1.512-2.599-2.643-3.069c-5.373-2.238-10.953-3.99-16.285-6.305
			c-3.615-1.568-6.268-1.187-9.061,1.7c-3.285,3.391-6.813,6.636-10.625,9.399c-4.824,3.492-6.938,2.48-9.584-2.772
			c-0.93-1.845-3.197-4.04-4.965-4.142c-1.633-0.093-4.242,2.047-5.002,3.813c-7.34,17.146-14.621,34.482-16.604,53.145
			c-1.029,9.662,0.156,19.707,1.559,29.404c0.58,4.014,0.75,7.197-1.398,10.471c-4.84,7.363-8.152,15.179-8.693,24.176
			c-0.426,7.158-7.945,10.609-17.938,8.172c-0.844,3.328-1.877,6.644-2.5,10.033c-1.045,5.694-4.455,8.695-9.922,10.18
			c-22.318,6.057-44.498,12.635-66.91,18.298c-11.082,2.8-22.496,4.687-33.875,5.789c-12.363,1.198-21.42,6.517-27.287,17.347
			c-3.51,6.475-6.33,13.416-10.525,19.402c-3.824,5.455-8.744,10.296-13.799,14.696c-0.594,0.517-1.119,1.05-1.609,1.591
			c-0.135-0.644-0.273-1.307-0.42-1.998h-270.952c-1.353-2.041-2.54-3.854-3.772-5.549c-0.723-0.995-1.561-2.357-2.611-2.722
			c-13.123-4.541-26.15-9.521-39.527-13.149c-4.82-1.307-10.941-0.515-15.66,1.364c-3.52,1.401-6.045,5.856-8.33,9.399
			c-0.596,0.93,1.01,3.785,2.234,5.222c1.053,1.233,3.01,1.695,5.457,2.965c-3.43,0.735-5.699,0.915-7.729,1.71
			c-5.936,2.321-8.277,6.216-8.185,12.76h-2.792c-0.455-1.687-1.303-3.415-1.857-5.039c-1.852,0.994-4.262,2.289-5.469,3.799
			c-0.316,0.396-0.625,0.818-0.935,1.24h-50.006c0.19-0.807,0.382-1.612,0.571-2.424c-0.694,0.788-1.356,1.602-2.006,2.424h-12.205
			c4.323-9.299,8.674-18.926,13.074-28.137c9.07,1.785,18.623-1.775,28.068-6.014c9.088-4.078,18.229-8.344,27.625-11.6
			c3.441-1.191,7.697,0.04,11.564-0.144c15.807-0.747,31.607-1.69,47.188-2.517c-4.045-4.627-8.643-8.028-10.479-12.529
			c-1.926-4.732-1.209-10.557-1.758-17.242c-4.322,1.029-8.908,2.234-13.549,3.188c-5.418,1.115-10.863,2.153-16.336,2.946
			c-3.939,0.57-4.822-1.938-4.686-5.32c0.137-3.389,0.031-6.784,0.031-12.148c-12.107,3.965-23.121,7.414-34.021,11.188
			c-11.357,3.932-22.459,8.681-33.967,12.066c-5.652,1.664-11.973,1.053-17.75,1.455c-6.018-14.781-15.066-22.932-38.971-19.195
			c4.281-12.836,15.932-19.95,23.678-31.37c-11.75,0.134-21.207,3.101-28.771,10.414c-5.279,5.106-9.646,11.146-14.67,16.538
			c-1.883,2.02-4.285,3.735-6.756,4.99c-15.803,8.031-31.691,15.896-47.715,23.898c-3.457-7.1-10.666-0.064-16.387-3.06
			c2.043-3.437,4.238-6.647,5.881-10.118c0.689-1.452,0.836-3.858,0.057-5.082c-0.596-0.93-3.248-1.285-4.631-0.829
			c-4.264,1.409-8.369,3.302-12.514,5.056c-5.859,2.479-11.578,5.368-17.598,7.35c-2.836,0.932-6.232,0.158-9.49,0.158
			c10.686-12.83,20.479-24.506,30.174-36.261c7.76-9.413,17.758-14.871,29.408-18.149c9.977-2.807,19.645-6.656,25.451-16.992
			c-16.029-3.785-33.271-0.289-47.672-9.878c-19.883,15.006-38.113,8.563-42.105-5.071c-13.414,2.955-24.082-5.139-35.824-9.484
			c-7.85-2.906-15.461-2.712-22.676,2.238c-1.205,0.83-3.535,1.057-4.879,0.48c-8.473-3.637-16.598-7.674-26.266-8.154
			c-6.043-0.301-6.783-6.688-7.959-11.652c-1.461-6.172-2.695-12.415-4.529-18.475c-1.424-4.703-6.094-5.635-9.725-4.566
			c-1.861,0.547-3.596,5.021-3.615,7.736c-0.086,11.597,2.502,12.503-12.732,12.422c-24.035-0.128-48.074,0.114-72.109-0.078
			c-21.689-0.174-43.381-0.552-65.061-1.16c-18.01-0.506-36.016-1.34-54.01-2.273c-18.906-0.982-37.807-2.118-56.691-3.445
			c-19.23-1.352-38.451-2.871-57.652-4.591c-19.17-1.72-38.336-3.537-57.455-5.749c-23.953-2.77-47.861-5.924-71.775-9.026
			c-23.16-3.005-46.363-5.766-69.438-9.343c-26.201-4.063-52.301-8.787-78.404-13.451c-29.438-5.262-58.875-10.535-88.225-16.253
			c-24.543-4.78-49.064-9.751-73.408-15.44c-63.344-14.805-126.588-29.346-189.855-44.479c-3.547-0.848-6.938-0.848-10.4-2.848
			c-1.908,0-3.816,0-5.725,0c9.297,17,4.293,32.947,3.186,50.777c-4.533-4.334-4.922-9.35-4.248-14.31
			c0.098-0.722,0.764-1.564,0.779-2.267c0.043-2.059-0.111-4.208-0.188-6.269c-2.387,1.172-6.162,1.731-6.918,3.573
			c-2.838,6.906-7.379,6.773-13.363,5.114c-14.461-4.005-26.668-12.178-38.98-20.249c-4.541-2.978-9.344-5.561-14.998-8.893
			c-2.074,27.612-4.148,54.034,6.023,80.001c-1.385,0.219-2.641,0.345-3.861,0.62c-5.525,1.238-7.266,6.008-3.275,10.043
			c3.801,3.844,4.404,6.527-0.068,10.57c-7.764,7.021-7.967,11.769-3.006,19.789c-2.531,4.955-5.213,9.173-6.939,13.75
			c-10.021,26.6-19.287,53.5-29.855,79.879C12.253-76.223,0.079-55.125-14.657-35.559c-1.654,2.195-2.178,5.45-2.625,8.309
			c-1.34,8.552-2.857,17.12-3.381,25.738c-0.389,6.422-0.088,13.091,1.234,19.37c2.434,11.559,0.039,22.338-4.811,32.403
			c-6.197,12.868-14.527,25.164-21.463,37.673c-2.258,4.071-6,8.038-8,12.055c0,1.526,0,3.051,0,4.577
			c7,2.534,14.32,12.085,13.461,20.352c-1.146,10.995-2.51,22.047-5.439,32.694c-3.795,13.787-2.193,26.02,6.818,37.318
			c8.301,10.407,11.158,22.568,12.65,35.649c0.797,6.977,5.795,13.48,9.432,21.438c-7.844,15.515-5.045,39.971,18.617,57.771
			c-2.508,1.444-4.734,2.568-6.801,3.953c-8.316,5.565-9.301,13.63-5.941,21.947c4.916,12.178,10.375,24.189,16.414,35.853
			c6.229,12.027,13.857,23.268,16.568,36.963c1.41,7.121-2.074,12.791-3.422,19.12c-0.891,4.187-1.693,8.56-1.424,12.779
			c0.248,3.9,2.318,6.418,7.412,6.438c13.592,0.055,25.279,5.536,35.154,14.732c9.045,8.42,17.754,17.208,26.891,25.522
			c2.582,2.35,6.027,3.901,9.299,5.301c3.357,1.44,4.117,3.615,3.012,6.75c-1.682,4.765-0.297,6.824,4.834,8.479
			c17.826,5.745,27.691,18.918,30.906,36.907c1.586,8.88,1.928,18.019,2.314,27.063c0.158,3.698,1.246,5.641,4.871,6.263
			c16.301,2.792,32.547,5.947,48.902,8.377c17.438,2.595,34.973,4.521,52.465,6.739c0.395,0.771,0.785,1.541,1.18,2.313
			c-0.904,0.248-2.029,0.234-2.674,0.786c-4.381,3.744-3.846,6.599,1.17,9.518c19.547,11.377,39.049,22.836,58.508,34.369
			c21.563,12.777,42.713,26.292,64.68,38.324c20.287,11.11,42.668,16.92,65.297,21.249c17.914,3.428,35.928,6.4,53.973,9.064
			c12.475,1.843,25.078,2.82,37.713,4.196c1.205-6.642,2.396-13.462,3.699-20.259c0.611-3.199,1.729-4.368,5.824-3.695
			c17.461,2.871,35.043,5.023,52.594,7.349c4.303,0.569,8.773,0.303,12.93,1.354c2.631,0.666,5.383,2.607,7.123,4.753
			c10.697,13.18,20.717,26.932,31.83,39.74c4.576,5.272,10.91,9.424,17.156,12.75c9.168,4.878,13.086,12.865,15.004,22.08
			c2.029,9.742,3.154,19.674,4.607,29.531c2.117,14.356,11.09,23.732,22.988,30.49c13.129,7.462,26.6,14.334,40.086,21.136
			c1.596,0.805,5.008,0.322,6.238-0.907c3.16-3.16,5.891-6.883,8.209-10.73c4.086-6.781,7.443-14.008,11.65-20.707
			c5.326-8.48,14.656-11.465,24.643-9.76c13.752,2.351,26.604,6.712,38.422,14.17c16.877,10.654,27.447,26.263,34.334,44.467
			c3.109,8.219,4.6,17.038,7.193,25.471c0.699,2.275,2.602,4.261,4.203,6.166c6.637,7.889,13.305,15.757,20.096,23.511
			c4.57,5.218,9.469,10.149,13.992,15.405c1.016,1.179,1.566,3.195,1.502,4.794c-0.582,14.81,0.369,29.148,10.229,41.414
			c6.484,8.067,14.072,14.665,23.123,19.756c17.131,9.64,35.764,14.887,54.697,19.346c5.039,1.185,10.098,2.296,15.592,3.543
			c-1.215-8.248-2.943-15.765-3.314-23.346c-0.746-15.263-0.943-30.559-0.988-45.843c-0.025-8.138,0.859-16.277,1.117-24.426
			c0.17-5.344,1.463-9.447,6.721-12.4c18.24-10.248,36.23-20.939,54.283-31.518c23.002-13.478,45.729-27.276,64.479-46.723
			c9.063-9.394,20.871-14.025,33.615-16.13c20.934-3.452,41.658-0.907,62.416,2.086c13.23,1.908,26.578,3.002,40.213,4.496
			c0.283-5.78-1.711-7.434-6.238-7.607c-4.15-0.162-9.197,2.246-12.359-2.844c7.186-5.798,12.961-5.497,21.049,0.49
			c6.156,4.562,12.564,8.789,19.104,13.335c-1.537,8.886-1.553,8.918,7.744,13.483c2.531,1.243,5.186,2.233,7.787,3.334
			c6.611,2.801,12.195,2.398,16.971-3.956c1.9-2.528,5.348-4.16,8.408-5.442c1.758-0.734,4.148,0.049,6.254,0.149
			c-0.416,1.887-0.66,3.833-1.299,5.64c-0.518,1.459-1.508,2.752-2.365,4.253c7.412,1.69,13.949-3.622,14.309-11.293
			c0.248-5.298,1.723-9.565,7.338-11.554c6.693,9.685,16.314,14.452,27.277,17.009c0.91,0.212,1.898,0.136,2.85,0.134
			c5.871-0.014,11.422-3.426,10.227-7.222c-0.941-2.984-4.873-5.694-8.1-7.145c-4.922-2.208-10.514-2.884-15.557-4.882
			c-2.984-1.183-5.461-3.661-8.502-5.794c14.986-11.561,16.217-14.512,12.451-27.997c-4.689-1.734-7.035,1.33-9.063,4.634
			c-2.117,3.443-4.354,6.3-9.604,4.585c3.078-10.505,9.615-18.124,19.803-21.124c9.109-2.686,18.785-3.642,28.283-4.744
			c5.648-0.655,11.467-0.516,17.145-0.014c6.006,0.532,8.266-2.457,9.02-7.66c0.561-3.873,0.533-9.32,5.365-9.02
			c2.453,0.151,5.777,5.234,6.551,8.583c0.875,3.802-0.668,8.159-1.1,11.79c9.107-2.334,19.693-5.498,30.475-7.708
			c19.314-3.961,38.762-6.481,58.238-0.688c12.127,3.611,22.389,9.748,29.17,20.927c0.922,1.516,3.582,3.19,5.117,2.929
			c12.436-2.116,25.041-4.063,34.861-13.152c1.756-1.626,3.438-3.377,4.898-5.263c1.57-2.028,2.428-5.525,4.336-6.165
			c3.076-1.03,6.875-0.804,10.166-0.121c11.479,2.382,20.418,8.487,28.037,17.67c8.67,10.448,18.068,20.484,33.031,22.496
			c2.578,0.346,5.395,4.592,6.66,7.634c1.771,4.248,2.906,9.037,3.047,13.633c0.393,12.961,0.07,25.94,0.168,38.91
			c0.051,6.632,2.373,12.541,6.637,17.612c0.738,0.878,2.033,1.293,3.426,2.139c-3.242,4.98,0.037,8.46,3.105,12.774
			c8.281,11.651,16.107,23.655,23.574,35.85c5.791,9.463,5.434,9.684,16.709,4.778c3.191,7.729,6.439,15.437,9.545,23.199
			c1.154,2.888,2.533,4.884,6.164,4.513c11.998-1.223,19.09,5.898,24.199,15.304c3.832,7.057,6.701,14.634,10.1,22.206
			c10.525-2.521,19.703-9.796,31.643-9.954c-4.764,14.855-22.662,17.17-27.693,31.481c1.34,0,2.457,0.357,3.01-0.051
			c13.83-10.216,26.51-21.442,32.336-38.386c1.219-3.539,2.334-7.146,3.064-10.809c0.213-1.071-1.07-2.433-1.639-3.673
			c-0.803-1.757-2.523-3.709-2.223-5.266c4.568-23.91,1.234-46.891-7.172-69.479c-8.367-22.472-21.943-42.083-33.846-62.613
			c-1.506-2.596-2.1-4.267,0.293-6.323c3.996-3.432,3.338-6.642-0.271-10.034c-18.566-17.438-33.082-37.835-43.654-60.967
			c-7.803-17.067-12.738-34.832-14.35-53.735c-1.396-16.362,0.391-32.161,6.275-47.106c3.35-8.51,10.018-15.692,15.02-23.579
			c2.301-3.627,5.072-7.301,6.033-11.334c1.049-4.396,2.922-7.006,6.977-8.688c11.443-4.748,17.408-15.316,25.172-23.994
			c4.932-5.514,10.27-10.67,15.184-16.199c1.541-1.734,3.189-4.136,3.271-6.292c1.051-26.818,14.455-40.498,40.59-44.567
			c3.203-0.498,4.066-1.694,4.246-4.682c1.023-17.096,10.186-28.569,25.137-36.049c7.77-3.886,15.529-7.822,23.082-12.108
			c8.756-4.967,13.92-11.513,14.297-19.399c-6.086,1.104-12.371,2.246-18.65,3.389c-0.268-0.426-0.533-0.854-0.797-1.28
			c6.217-5.087,8.813-11.204,6.027-17.601c7.1-1.896,14.127-3.125,20.631-5.692c6.527-2.578,9.1-8.938,10.1-15.408
			c1.002-6.503-4.904-3.274-7.652-4.695c2.508-3.304,5.029-6.626,7.012-9.237c-8.395-16.846-16.551-33.402-24.973-49.82
			c-0.82-1.601-3.164-3-5.018-3.354c-2.936-0.557-6.055-0.147-7.432-0.147c-4.381-7.313-8.182-13.658-12.738-21.27
			c2.803,1.178,4.213,1.772,6.236,2.622c-1.441-15.024-3.857-29.076-16.578-38.593c1.408-3.289,2.641-6.167,3.873-9.044
			c-15.572-14.415-19.529-47.405-7.729-56.232c1.037,5.099,2.793,10.604,3.113,16.193c0.289,5.016-0.998,10.121-1.605,15.321
			c3.58-0.152,4.848,1.587,3.693,6.909c-0.967,4.47-2.664,10.275,5.162,12.791c3.043,0.978,4.672,6.485,6.852,9.99
			c2.125,3.418,4.129,6.911,6.699,11.236c4.797-7.324-1.139-11.609-1.938-17.247c4.063-0.427,6.35,1.664,8.32,4.8
			c4.342,6.902,2.193,14.071,1.545,21.35c-0.729,8.174-0.836,16.46-0.402,24.652c0.135,2.511,2.941,4.878,4.523,7.31
			c0.51-0.106,1.018-0.213,1.525-0.323c1.357-5.145,2.578-10.331,4.096-15.429c4.617-15.499,10.225-30.771,13.725-46.515
			c2.25-10.127,2.352-21.006-1.441-31.216c-0.709-1.905-2.234-4.107-3.973-4.931c-11.047-5.225-15.543-15.281-19.783-24.947
			c7.664,2.629,15.461,5.304,23.506,8.064c-0.6,2.769-1.406,6.488-2.215,10.209c0.604,0.334,1.205,0.667,1.807,0.997
			c4.004-5.026,8.455-9.761,11.926-15.134c11.322-17.527,16.043-36.907,14.943-57.703c-0.168-3.193-0.666-6.384-1.234-9.533
			c-1.344-7.456-1.393-7.408-9.105-5.931c-0.949,0.182-2.021-0.269-3.82-0.546c2.844-2.922,5.135-5.263,7.412-7.616
			c0.494-0.513,1.318-1.048,1.352-1.608c1.096-18.072,13.428-28.308,27.367-35.843c15.17-8.196,31.66-13.919,47.461-20.975
			c8.25-3.685,16.494-7.513,24.227-12.138c2.465-1.475,3.949-5.572,4.668-8.746c1.162-5.12,1.893-6.369,9.186-7.622
			c-1.543,5.009-2.869,9.313-4.215,13.67c4.637-3.778,9.467-8.108,14.717-11.854c3.609-2.573,7.635-4.771,11.783-6.308
			c2.979-1.104,4.334-2.306,4.205-5.538c-0.449-11.131-5.125-19.75-19.555-18.729c3.008,2.888,5.156,4.947,7.303,7.012
			c2.227,2.144,4.449,4.295,6.676,6.441c-1.686,1.635-3.119,3.745-5.109,4.801c-3.684,1.952-7.619,2.407-10.877-1.148
			c-3.715-4.051-7.83-7.838-10.924-12.325c-3.482-5.047-7.607-8.185-13.742-8.119c-2.926-15.071,2.635-64.941,9.203-82.244
			c10.305,0.101,17.488-6.512,24.922-12.635c2.184-1.799,4.818-3.293,6.4-5.525c1.957-2.763,4.08-6.092,4.25-9.277
			c0.283-5.342-0.92-10.766-1.717-18.188c4.447,2.96,7.551,5.025,10.85,7.222c-8.34,8.316-8.34,8.316-5.299,15.483
			c12.064-3.529,7.723-16.325,12.123-22.214c2.816,1.75,5.221,3.645,7.951,4.678c0.729,0.276,3.311-1.922,3.561-3.258
			c0.707-3.827,1.357-8.086-4.277-9.949c8.801,0.746,16.336-2.182,22.322-7.464c5.85-5.161,10.455-11.728,14.971-16.946
			l0.311-17.198c-1.201-1.725-1.723-2.396-2.148-3.112C2140.558-153.123,2136.993-155.191,2131.173-152.877z"/>
	</g>
</g>
</svg>
