<?xml version="1.0" encoding="utf-8"?>
<!-- Generator: Adobe Illustrator 16.0.0, SVG Export Plug-In . SVG Version: 6.00 Build 0)  -->
<!DOCTYPE svg PUBLIC "-//W3C//DTD SVG 1.1//EN" "http://www.w3.org/Graphics/SVG/1.1/DTD/svg11.dtd">
<svg version="1.1" id="Layer_1" xmlns="http://www.w3.org/2000/svg" xmlns:xlink="http://www.w3.org/1999/xlink" x="0px" y="0px"
	 width="1920px" height="1080px" viewBox="0 0 1920 1080" enable-background="new 0 0 1920 1080" xml:space="preserve">
<g>
	<defs>
		<rect id="SVGID_1_" width="1920" height="1080"/>
	</defs>
	<clipPath id="SVGID_2_">
		<use xlink:href="#SVGID_1_"  overflow="visible"/>
	</clipPath>
	<g clip-path="url(#SVGID_2_)">
		<path fill="#3FA9F5" d="M1698.84,973.841c0.813,5.424,1.552,10.35,2.401,16.014c3.918-4.741,7.916-8.53,5.7-14.748
			C1704.044,974.653,1701.382,974.237,1698.84,973.841z"/>
		<path fill="#3FA9F5" d="M2143.404-152.409l-0.13,7.203c0.044,0.064,0.083,0.119,0.13,0.187
			C2143.404-148.394,2143.402-150.401,2143.404-152.409z"/>
		<path fill="#3FA9F5" d="M2128.875-152.877c-5.953,2.367-6.693,1.382-7.309-4.801c-0.424-4.252-1.754-8.416-2.871-13.481
			c-3.412,0-7.299,0.604-10.865-0.209c-2.455-0.559-5.8-2.666-6.459-4.79c-4.288-13.814-7.941-27.825-11.818-41.77
			c-2.264-8.145-4.488-16.303-6.913-24.401c-0.36-1.204-1.512-2.599-2.644-3.069c-5.373-2.237-10.953-3.989-16.285-6.305
			c-3.615-1.568-6.268-1.187-9.061,1.7c-3.284,3.391-6.813,6.637-10.625,9.399c-4.823,3.493-6.937,2.48-9.583-2.772
			c-0.931-1.845-3.198-4.04-4.965-4.142c-1.633-0.093-4.243,2.047-5.002,3.813c-7.341,17.145-14.621,34.481-16.604,53.145
			c-1.028,9.661,0.156,19.706,1.559,29.403c0.58,4.014,0.75,7.197-1.398,10.471c-4.839,7.364-8.152,15.179-8.692,24.177
			c-0.427,7.157-7.945,10.609-17.938,8.171c-0.845,3.329-1.877,6.644-2.5,10.033c-1.046,5.694-4.456,8.695-9.923,10.18
			c-22.317,6.057-44.497,12.635-66.91,18.298c-11.081,2.8-22.495,4.687-33.875,5.789c-12.363,1.198-21.419,6.517-27.287,17.347
			c-3.51,6.476-6.33,13.417-10.525,19.402c-3.824,5.455-8.743,10.296-13.799,14.696c-6.089,5.301-6.796,11.048-0.79,15.962
			c1.969,1.611,3.623,4.63,4.761,6.63h-273.389c-0.42-5-0.899-9.733-1.204-14.674c-0.14-2.226,0.228-4.407,0.259-4.937
			c-2.582-3.747-4.429-6.489-6.39-9.188c-0.724-0.995-1.562-2.232-2.612-2.597c-13.123-4.541-26.15-9.458-39.527-13.086
			c-4.819-1.306-10.941-0.483-15.66,1.396c-3.52,1.4-6.045,5.871-8.329,9.414c-0.597,0.93,1.009,3.793,2.234,5.23
			c1.053,1.233,3.009,1.7,5.457,2.969c-3.431,0.735-5.7,0.917-7.729,1.713c-7.857,3.071-9.425,7.896-7.371,18.981
			c0.289,1.562,0.194,3.779-0.104,4.779h-6.333c0.25-1,0.513-2.089,0.821-3.194c0.604-2.162,2.327-4.125,2.329-6.221
			c0.003-2.303-1.391-4.57-2.177-6.874c-1.853,0.994-4.263,1.414-5.47,2.923C1451.931-9.072,1448.923-4,1446.344,0h-45.078
			c1.242-5,2.5-10.174,3.726-15.424C1400.73-10.585,1397.373-5,1394.081,0h-9.473c6.355-13,12.746-26.533,19.245-40.137
			c9.071,1.786,18.623-1.274,28.068-5.513c9.089-4.078,18.229-8.094,27.625-11.35c3.441-1.191,7.698,0.166,11.565-0.019
			c15.807-0.747,31.606-1.628,47.187-2.454c-4.044-4.628-8.643-7.998-10.478-12.499c-1.927-4.732-1.209-10.542-1.758-17.227
			c-4.322,1.03-8.908,2.243-13.549,3.197c-5.419,1.116-10.863,2.158-16.337,2.951c-3.939,0.57-4.821-1.935-4.685-5.317
			c0.137-3.388,0.03-6.784,0.03-12.147c-12.106,3.964-23.12,7.413-34.021,11.187c-11.357,3.932-22.458,8.681-33.967,12.066
			c-5.651,1.664-11.972,1.053-17.75,1.455c-6.017-14.781-15.066-22.932-38.97-19.194c4.281-12.837,15.932-19.951,23.677-31.371
			c-11.749,0.134-21.207,3.101-28.771,10.414c-5.28,5.106-9.647,11.146-14.671,16.539c-1.882,2.019-4.284,3.734-6.755,4.99
			c-15.803,8.031-31.692,15.896-47.716,23.897c-3.456-7.1-10.666-0.063-16.386-3.06c2.043-3.437,4.238-6.647,5.881-10.117
			c0.688-1.453,0.836-3.859,0.056-5.082c-0.596-0.931-3.247-1.286-4.63-0.83c-4.265,1.409-8.37,3.302-12.515,5.056
			c-5.858,2.479-11.578,5.368-17.597,7.35c-2.836,0.932-6.232,0.158-9.49,0.158c10.686-12.83,20.479-24.505,30.173-36.261
			c7.76-9.413,17.759-14.871,29.408-18.148c9.978-2.808,19.645-6.657,25.451-16.993c-16.028-3.785-33.271-0.289-47.671-9.878
			c-19.884,15.006-38.113,8.563-42.106-5.07c-13.413,2.954-24.081-5.139-35.824-9.484c-7.85-2.907-15.461-2.713-22.676,2.238
			c-1.205,0.829-3.535,1.057-4.879,0.48c-8.473-3.638-16.597-7.674-26.265-8.154c-6.043-0.302-6.783-6.688-7.96-11.652
			c-1.46-6.172-2.694-12.416-4.529-18.476c-1.424-4.702-6.094-5.635-9.725-4.566c-1.861,0.547-3.595,5.022-3.615,7.736
			c-0.085,11.597,2.502,12.503-12.731,12.422c-24.035-0.128-48.074,0.114-72.109-0.078c-21.689-0.174-43.381-0.552-65.062-1.16
			c-18.01-0.505-36.016-1.339-54.01-2.273c-18.906-0.982-37.807-2.118-56.69-3.444c-19.23-1.352-38.452-2.871-57.652-4.592
			c-19.17-1.72-38.337-3.537-57.456-5.748c-23.952-2.771-47.861-5.924-71.775-9.027c-23.16-3.004-46.362-5.766-69.438-9.343
			c-26.201-4.063-52.3-8.787-78.403-13.451c-29.438-5.261-58.876-10.534-88.226-16.253c-24.543-4.779-49.064-9.75-73.407-15.44
			c-63.345-14.805-126.589-30.346-189.856-45.479c-3.546-0.848-6.938-1.847-10.4-3.847c-1.908,0-3.816,0-5.724,0
			c9.296,17,4.292,33.947,3.185,51.777c-4.532-4.333-4.922-8.848-4.248-13.809c0.099-0.722,0.764-1.314,0.779-2.017
			c0.043-2.059-0.111-4.082-0.188-6.144c-2.387,1.173-6.162,1.794-6.918,3.637c-2.838,6.905-7.378,6.803-13.363,5.144
			c-14.46-4.005-26.668-12.163-38.98-20.234c-4.541-2.978-9.343-5.552-14.998-8.884c-2.074,27.612-4.148,54.039,6.023,80.005
			c-1.385,0.219-2.64,0.349-3.861,0.622c-5.524,1.239-7.266,6.01-3.275,10.044c3.801,3.844,4.404,6.527-0.068,10.571
			c-7.764,7.021-7.967,11.768-3.005,19.788c-2.532,4.955-5.214,9.173-6.939,13.751c-10.022,26.599-19.288,53.499-29.856,79.878
			C9.955-76.223-2.219-55.124-16.954-35.559c-1.654,2.195-2.179,5.45-2.626,8.309c-1.339,8.552-2.857,17.12-3.38,25.738
			c-0.389,6.422-0.089,13.091,1.233,19.37c2.434,11.559,0.039,22.338-4.811,32.403C-32.734,63.13-40.064,75.426-47,87.935
			c-2.258,4.071-5,8.038-7,12.055c0,1.526,0,3.051,0,4.577c7,2.534,13.321,12.085,12.461,20.352
			c-1.146,10.995-3.01,22.047-5.94,32.694c-3.795,13.787-2.443,26.02,6.569,37.318c8.301,10.407,11.032,22.568,12.524,35.649
			c0.797,6.977,5.734,13.48,9.371,21.438c-7.846,15.515-5.077,39.971,18.584,57.771c-2.508,1.444-4.75,2.568-6.816,3.953
			c-8.316,5.565-9.308,13.63-5.95,21.947c4.917,12.178,10.373,24.189,16.412,35.853c6.227,12.027,13.854,23.268,16.565,36.963
			c1.41,7.121-2.074,12.791-3.424,19.12c-0.89,4.187-1.692,8.56-1.424,12.779c0.248,3.9,2.318,6.418,7.412,6.438
			c13.592,0.055,25.28,5.536,35.154,14.732c9.045,8.42,17.754,17.208,26.891,25.522c2.582,2.35,6.028,3.901,9.299,5.301
			c3.357,1.44,4.118,3.615,3.012,6.75c-1.681,4.765-0.297,6.824,4.834,8.479c17.826,5.745,27.691,18.918,30.906,36.907
			c1.587,8.88,1.928,18.019,2.314,27.063c0.158,3.698,1.246,5.641,4.871,6.263c16.301,2.792,32.548,5.947,48.902,8.377
			c17.438,2.595,34.973,4.521,52.465,6.739c0.395,0.771,0.786,1.541,1.18,2.313c-0.903,0.248-2.029,0.234-2.674,0.786
			c-4.381,3.744-3.846,6.599,1.17,9.518c19.548,11.377,39.049,22.836,58.508,34.369c21.563,12.777,42.713,26.292,64.681,38.324
			c20.286,11.11,42.667,16.92,65.296,21.249c17.914,3.428,35.929,6.4,53.973,9.064c12.475,1.843,25.078,2.82,37.714,4.196
			c1.204-6.642,2.396-13.462,3.698-20.259c0.611-3.199,1.729-4.368,5.825-3.695c17.461,2.871,35.042,5.023,52.593,7.349
			c4.303,0.569,8.774,0.303,12.93,1.354c2.631,0.666,5.384,2.607,7.124,4.753c10.696,13.18,20.717,26.932,31.83,39.74
			c4.575,5.272,10.909,9.424,17.155,12.75c9.168,4.878,13.086,12.865,15.005,22.08c2.029,9.742,3.153,19.674,4.606,29.531
			c2.118,14.356,11.09,23.732,22.988,30.49c13.129,7.462,26.6,14.334,40.086,21.136c1.597,0.805,5.009,0.322,6.238-0.907
			c3.161-3.16,5.891-6.883,8.21-10.73c4.086-6.781,7.443-14.008,11.65-20.707c5.325-8.48,14.655-11.465,24.643-9.76
			c13.751,2.351,26.604,6.712,38.422,14.17c16.876,10.654,27.446,26.263,34.333,44.467c3.109,8.219,4.601,17.038,7.193,25.471
			c0.7,2.275,2.602,4.261,4.203,6.166c6.637,7.889,13.305,15.757,20.097,23.511c4.57,5.218,9.468,10.149,13.992,15.405
			c1.015,1.179,1.565,3.195,1.502,4.794c-0.582,14.81,0.368,29.148,10.228,41.414c6.484,8.067,14.072,14.665,23.123,19.756
			c17.131,9.64,35.765,14.887,54.697,19.346c5.04,1.185,10.098,2.296,15.593,3.543c-1.216-8.248-2.943-15.765-3.315-23.346
			c-0.745-15.263-0.942-30.559-0.987-45.843c-0.025-8.138,0.859-16.277,1.117-24.426c0.17-5.344,1.463-9.447,6.721-12.4
			c18.239-10.248,36.229-20.939,54.282-31.518c23.003-13.478,45.729-27.276,64.479-46.723c9.063-9.394,20.87-14.025,33.615-16.13
			c20.933-3.452,41.658-0.907,62.416,2.086c13.229,1.908,26.577,3.002,40.213,4.496c0.283-5.78-1.711-7.434-6.239-7.607
			c-4.149-0.162-9.197,2.246-12.359-2.844c7.186-5.798,12.961-5.497,21.049,0.49c6.157,4.562,12.564,8.789,19.104,13.335
			c-1.536,8.886-1.553,8.918,7.744,13.483c2.531,1.243,5.187,2.233,7.787,3.334c6.611,2.801,12.195,2.398,16.971-3.956
			c1.901-2.528,5.349-4.16,8.409-5.442c1.757-0.734,4.148,0.049,6.253,0.149c-0.415,1.887-0.66,3.833-1.299,5.64
			c-0.517,1.459-1.508,2.752-2.365,4.253c7.412,1.69,13.949-3.622,14.309-11.293c0.248-5.298,1.723-9.565,7.339-11.554
			c6.692,9.685,16.313,14.452,27.277,17.009c0.91,0.212,1.897,0.136,2.85,0.134c5.871-0.014,11.422-3.426,10.227-7.222
			c-0.941-2.984-4.874-5.694-8.1-7.145c-4.922-2.208-10.515-2.884-15.557-4.882c-2.985-1.183-5.461-3.661-8.503-5.794
			c14.986-11.561,16.217-14.512,12.452-27.997c-4.689-1.734-7.036,1.33-9.063,4.634c-2.116,3.443-4.354,6.3-9.603,4.585
			c3.078-10.505,9.615-18.124,19.802-21.124c9.109-2.686,18.785-3.642,28.283-4.744c5.648-0.655,11.467-0.516,17.145-0.014
			c6.006,0.532,8.267-2.457,9.021-7.66c0.561-3.873,0.533-9.32,5.364-9.02c2.454,0.151,5.778,5.234,6.551,8.583
			c0.875,3.802-0.667,8.159-1.1,11.79c9.108-2.334,19.694-5.498,30.475-7.708c19.314-3.961,38.762-6.481,58.239-0.688
			c12.127,3.611,22.388,9.748,29.17,20.927c0.921,1.516,3.581,3.19,5.116,2.929c12.437-2.116,25.042-4.063,34.861-13.152
			c1.757-1.626,3.438-3.377,4.899-5.263c1.569-2.028,2.427-5.525,4.335-6.165c3.076-1.03,6.876-0.804,10.167-0.121
			c11.478,2.382,20.417,8.487,28.037,17.67c8.67,10.448,18.067,20.484,33.031,22.496c2.577,0.346,5.395,4.592,6.66,7.634
			c1.771,4.248,2.906,9.037,3.047,13.633c0.392,12.961,0.069,25.94,0.168,38.91c0.05,6.632,2.373,12.541,6.636,17.612
			c0.738,0.878,2.033,1.293,3.427,2.139c-3.242,4.98,0.036,8.46,3.104,12.774c8.281,11.651,16.107,23.655,23.574,35.85
			c5.792,9.463,5.434,9.684,16.709,4.778c3.191,7.729,6.44,15.437,9.545,23.199c1.155,2.888,2.534,4.884,6.165,4.513
			c11.997-1.223,19.089,5.898,24.198,15.304c3.833,7.057,6.702,14.634,10.1,22.206c10.525-2.521,19.704-9.796,31.644-9.954
			c-4.765,14.855-22.663,17.17-27.694,31.481c1.34,0,2.457,0.357,3.01-0.051c13.831-10.216,26.51-21.442,32.337-38.386
			c1.218-3.539,2.333-7.146,3.063-10.809c0.214-1.071-1.07-2.433-1.639-3.673c-0.802-1.757-2.522-3.709-2.223-5.266
			c4.568-23.91,1.234-46.891-7.172-69.479c-8.367-22.472-21.943-42.083-33.846-62.613c-1.505-2.596-2.1-4.267,0.294-6.323
			c3.995-3.432,3.337-6.642-0.272-10.034c-18.566-17.438-33.081-37.835-43.654-60.967c-7.802-17.067-12.737-34.832-14.35-53.735
			c-1.396-16.362,0.391-32.161,6.275-47.106c3.351-8.51,10.018-15.692,15.02-23.579c2.301-3.627,5.073-7.301,6.033-11.334
			c1.05-4.396,2.922-7.006,6.977-8.688c11.443-4.748,17.409-15.316,25.172-23.994c4.933-5.514,10.27-10.67,15.185-16.199
			c1.54-1.734,3.188-4.136,3.271-6.292c1.051-26.818,14.454-40.498,40.589-44.567c3.203-0.498,4.066-1.694,4.246-4.682
			c1.023-17.096,10.187-28.569,25.137-36.049c7.77-3.886,15.529-7.822,23.082-12.108c8.756-4.967,13.92-11.513,14.298-19.399
			c-6.086,1.104-12.371,2.246-18.651,3.389c-0.268-0.426-0.532-0.854-0.796-1.28c6.216-5.087,8.812-11.204,6.027-17.601
			c7.1-1.896,14.126-3.125,20.63-5.692c6.527-2.578,9.101-8.938,10.1-15.408c1.003-6.503-4.904-3.274-7.652-4.695
			c2.508-3.304,5.029-6.626,7.013-9.237c-8.396-16.846-16.552-33.402-24.974-49.82c-0.82-1.601-3.163-3-5.018-3.354
			c-2.936-0.557-6.055-0.147-7.432-0.147c-4.38-7.313-8.181-13.658-12.738-21.27c2.803,1.178,4.214,1.772,6.236,2.622
			c-1.441-15.024-3.856-29.076-16.578-38.593c1.409-3.289,2.642-6.167,3.873-9.044c-15.571-14.415-19.529-47.405-7.729-56.232
			c1.038,5.099,2.793,10.604,3.114,16.193c0.289,5.016-0.998,10.121-1.605,15.321c3.579-0.152,4.847,1.587,3.693,6.909
			c-0.968,4.47-2.664,10.275,5.161,12.791c3.043,0.978,4.672,6.485,6.852,9.99c2.126,3.418,4.129,6.911,6.699,11.236
			c4.797-7.324-1.139-11.609-1.938-17.247c4.063-0.427,6.351,1.664,8.32,4.8c4.343,6.902,2.194,14.071,1.546,21.35
			c-0.729,8.174-0.836,16.46-0.403,24.652c0.135,2.511,2.942,4.878,4.524,7.31c0.509-0.106,1.018-0.213,1.524-0.323
			c1.357-5.145,2.578-10.331,4.097-15.429c4.616-15.499,10.224-30.771,13.724-46.515c2.251-10.127,2.353-21.006-1.44-31.216
			c-0.709-1.905-2.235-4.107-3.973-4.931c-11.048-5.225-15.543-15.281-19.783-24.947c7.664,2.629,15.46,5.304,23.506,8.064
			c-0.601,2.769-1.407,6.488-2.215,10.209c0.603,0.334,1.204,0.667,1.806,0.997c4.004-5.026,8.456-9.761,11.926-15.134
			c11.322-17.527,16.043-36.907,14.944-57.703c-0.168-3.193-0.667-6.384-1.235-9.533c-1.344-7.456-1.392-7.408-9.105-5.931
			c-0.949,0.182-2.021-0.269-3.82-0.546c2.845-2.922,5.136-5.263,7.412-7.616c0.494-0.513,1.318-1.048,1.353-1.608
			c1.095-18.072,13.427-28.308,27.367-35.843c15.17-8.196,31.66-13.919,47.46-20.975c8.25-3.685,16.495-7.513,24.228-12.138
			c2.464-1.475,3.948-5.572,4.667-8.746c1.162-5.12,1.893-6.369,9.186-7.622c-1.542,5.009-2.869,9.313-4.215,13.67
			c4.638-3.778,9.468-8.108,14.717-11.854c3.609-2.573,7.636-4.771,11.783-6.308c2.979-1.104,4.334-2.306,4.205-5.538
			c-0.448-11.131-5.125-19.75-19.555-18.729c3.008,2.888,5.157,4.947,7.304,7.012c2.227,2.144,4.449,4.295,6.675,6.441
			c-1.685,1.635-3.118,3.745-5.109,4.801c-3.683,1.952-7.619,2.407-10.877-1.148c-3.714-4.051-7.83-7.838-10.924-12.325
			c-3.482-5.047-7.607-8.185-13.742-8.119c-2.926-15.071,2.635-64.941,9.203-82.244c10.306,0.101,17.488-6.512,24.922-12.635
			c2.184-1.799,4.818-3.293,6.4-5.525c1.957-2.763,4.081-6.092,4.25-9.276c0.284-5.343-0.92-10.767-1.716-18.189
			c4.446,2.96,7.551,5.025,10.85,7.222c-8.341,8.316-8.341,8.316-5.3,15.483c12.065-3.529,7.723-16.325,12.124-22.214
			c2.815,1.75,5.22,3.645,7.95,4.679c0.729,0.275,3.311-1.922,3.561-3.258c0.707-3.828,1.357-8.086-4.277-9.949
			c8.801,0.745,16.336-2.182,22.322-7.465c5.85-5.16,10.455-11.728,14.972-16.946l0.311-17.198
			c-1.202-1.725-1.724-2.396-2.149-3.112C2138.26-153.122,2134.695-155.19,2128.875-152.877z"/>
	</g>
</g>
</svg>
